<svg width="94" height="106" viewBox="0 0 94 106" fill="none" xmlns="http://www.w3.org/2000/svg">
<g clip-path="url(#clip0_865_17039)">
<path d="M52.5001 1.9751C30.7198 1.9751 13.0001 17.9226 13.0001 37.5251C13.0001 44.377 15.1673 51.0144 19.278 56.7537C18.4998 65.3608 16.4142 71.7505 13.3859 74.7775C12.9856 75.1778 12.8856 75.7901 13.1384 76.2957C13.3622 76.7473 13.823 77.0251 14.3168 77.0251C14.3773 77.0251 14.4379 77.0212 14.4998 77.0119C15.033 76.9369 27.4202 75.1541 36.3802 69.9823C41.4678 72.0349 46.8872 73.0751 52.5001 73.0751C74.2804 73.0751 92.0001 57.1276 92.0001 37.5251C92.0001 17.9226 74.2804 1.9751 52.5001 1.9751ZM34.0668 42.7918C31.1622 42.7918 28.8001 40.4297 28.8001 37.5251C28.8001 34.6205 31.1622 32.2584 34.0668 32.2584C36.9713 32.2584 39.3334 34.6205 39.3334 37.5251C39.3334 40.4297 36.9713 42.7918 34.0668 42.7918ZM52.5001 42.7918C49.5955 42.7918 47.2334 40.4297 47.2334 37.5251C47.2334 34.6205 49.5955 32.2584 52.5001 32.2584C55.4047 32.2584 57.7668 34.6205 57.7668 37.5251C57.7668 40.4297 55.4047 42.7918 52.5001 42.7918ZM70.9334 42.7918C68.0289 42.7918 65.6668 40.4297 65.6668 37.5251C65.6668 34.6205 68.0289 32.2584 70.9334 32.2584C73.838 32.2584 76.2001 34.6205 76.2001 37.5251C76.2001 40.4297 73.838 42.7918 70.9334 42.7918Z" fill="#219653"/>
</g>
<path d="M1.296 91.112H3.33V104H1.296V91.112ZM7.52105 96.368H7.62905C7.89305 95.948 8.26505 95.6 8.74505 95.324C9.23705 95.036 9.78905 94.892 10.401 94.892C11.517 94.892 12.351 95.228 12.903 95.9C13.455 96.56 13.731 97.442 13.731 98.546V104H11.733V98.816C11.733 98.048 11.553 97.514 11.193 97.214C10.845 96.902 10.383 96.746 9.80705 96.746C9.45905 96.746 9.15305 96.818 8.88905 96.962C8.62505 97.106 8.39705 97.304 8.20505 97.556C8.01305 97.796 7.86905 98.078 7.77305 98.402C7.67705 98.714 7.62905 99.044 7.62905 99.392V104H5.63105V95.18H7.52105V96.368ZM19.7044 90.968C20.0404 90.968 20.3404 90.998 20.6044 91.058C20.8684 91.118 21.1024 91.196 21.3064 91.292L20.7484 93.056C20.6164 92.996 20.4784 92.948 20.3344 92.912C20.1904 92.876 20.0104 92.858 19.7944 92.858C19.4464 92.858 19.1464 92.978 18.8944 93.218C18.6544 93.458 18.5344 93.806 18.5344 94.262V95.18H20.7844V96.944H18.5344V104H16.5364V96.944H14.9164V95.18H16.5364V94.118C16.5364 93.626 16.6144 93.188 16.7704 92.804C16.9264 92.408 17.1424 92.078 17.4184 91.814C17.7064 91.538 18.0424 91.328 18.4264 91.184C18.8224 91.04 19.2484 90.968 19.7044 90.968ZM25.9421 94.892C26.6141 94.892 27.2321 95.012 27.7961 95.252C28.3601 95.48 28.8461 95.804 29.2541 96.224C29.6621 96.644 29.9801 97.142 30.2081 97.718C30.4361 98.294 30.5501 98.918 30.5501 99.59C30.5501 100.262 30.4361 100.886 30.2081 101.462C29.9801 102.038 29.6621 102.536 29.2541 102.956C28.8461 103.376 28.3601 103.706 27.7961 103.946C27.2321 104.174 26.6141 104.288 25.9421 104.288C25.2701 104.288 24.6521 104.174 24.0881 103.946C23.5241 103.706 23.0381 103.376 22.6301 102.956C22.2221 102.536 21.9041 102.038 21.6761 101.462C21.4481 100.886 21.3341 100.262 21.3341 99.59C21.3341 98.918 21.4481 98.294 21.6761 97.718C21.9041 97.142 22.2221 96.644 22.6301 96.224C23.0381 95.804 23.5241 95.48 24.0881 95.252C24.6521 95.012 25.2701 94.892 25.9421 94.892ZM25.9421 102.434C26.2781 102.434 26.6021 102.368 26.9141 102.236C27.2261 102.104 27.5021 101.918 27.7421 101.678C27.9941 101.438 28.1921 101.144 28.3361 100.796C28.4801 100.436 28.5521 100.034 28.5521 99.59C28.5521 99.146 28.4801 98.75 28.3361 98.402C28.1921 98.042 27.9941 97.742 27.7421 97.502C27.5021 97.262 27.2261 97.076 26.9141 96.944C26.6021 96.812 26.2781 96.746 25.9421 96.746C25.6061 96.746 25.2821 96.812 24.9701 96.944C24.6581 97.076 24.3761 97.262 24.1241 97.502C23.8841 97.742 23.6921 98.042 23.5481 98.402C23.4041 98.75 23.3321 99.146 23.3321 99.59C23.3321 100.034 23.4041 100.436 23.5481 100.796C23.6921 101.144 23.8841 101.438 24.1241 101.678C24.3761 101.918 24.6581 102.104 24.9701 102.236C25.2821 102.368 25.6061 102.434 25.9421 102.434ZM31.8928 95.18H33.7828V96.512H33.8908C33.9988 96.284 34.1428 96.074 34.3228 95.882C34.5148 95.678 34.7248 95.51 34.9528 95.378C35.1928 95.234 35.4388 95.126 35.6908 95.054C35.9548 94.97 36.2068 94.928 36.4468 94.928C36.7348 94.928 36.9808 94.952 37.1848 95C37.3888 95.048 37.5748 95.114 37.7428 95.198L37.1668 97.052C37.0348 96.992 36.8848 96.95 36.7168 96.926C36.5608 96.89 36.3688 96.872 36.1408 96.872C35.8168 96.872 35.5168 96.938 35.2408 97.07C34.9768 97.202 34.7428 97.382 34.5388 97.61C34.3348 97.838 34.1728 98.108 34.0528 98.42C33.9448 98.732 33.8908 99.062 33.8908 99.41V104H31.8928V95.18ZM38.8185 95.18H40.7085V96.368H40.8165C41.0925 95.936 41.4765 95.582 41.9685 95.306C42.4605 95.03 42.9825 94.892 43.5345 94.892C44.1945 94.892 44.7585 95.048 45.2265 95.36C45.7065 95.66 46.0545 96.056 46.2705 96.548C46.5705 96.08 46.9725 95.69 47.4765 95.378C47.9805 95.054 48.5865 94.892 49.2945 94.892C49.8345 94.892 50.3025 94.982 50.6985 95.162C51.0945 95.33 51.4185 95.57 51.6705 95.882C51.9345 96.194 52.1325 96.572 52.2645 97.016C52.3965 97.448 52.4625 97.934 52.4625 98.474V104H50.4645V98.816C50.4645 98.048 50.3145 97.514 50.0145 97.214C49.7265 96.902 49.3005 96.746 48.7365 96.746C48.4125 96.746 48.1185 96.818 47.8545 96.962C47.6025 97.106 47.3865 97.304 47.2065 97.556C47.0265 97.796 46.8885 98.078 46.7925 98.402C46.6965 98.726 46.6485 99.068 46.6485 99.428V104H44.6505V98.816C44.6505 98.048 44.4945 97.514 44.1825 97.214C43.8825 96.902 43.4445 96.746 42.8685 96.746C42.5565 96.746 42.2745 96.818 42.0225 96.962C41.7705 97.106 41.5545 97.304 41.3745 97.556C41.1945 97.796 41.0565 98.078 40.9605 98.402C40.8645 98.726 40.8165 99.068 40.8165 99.428V104H38.8185V95.18ZM59.9025 102.92H59.7945C59.5305 103.268 59.1885 103.586 58.7685 103.874C58.3485 104.15 57.8145 104.288 57.1665 104.288C56.6985 104.288 56.2605 104.21 55.8525 104.054C55.4445 103.91 55.0905 103.706 54.7905 103.442C54.4905 103.166 54.2505 102.848 54.0705 102.488C53.9025 102.116 53.8185 101.708 53.8185 101.264C53.8185 100.796 53.9085 100.376 54.0885 100.004C54.2805 99.632 54.5385 99.32 54.8625 99.068C55.1985 98.816 55.5945 98.624 56.0505 98.492C56.5065 98.348 56.9985 98.276 57.5265 98.276C58.1145 98.276 58.6065 98.336 59.0025 98.456C59.3985 98.564 59.6985 98.666 59.9025 98.762V98.42C59.9025 98.156 59.8425 97.91 59.7225 97.682C59.6145 97.454 59.4585 97.262 59.2545 97.106C59.0625 96.938 58.8405 96.812 58.5885 96.728C58.3365 96.632 58.0725 96.584 57.7965 96.584C57.3525 96.584 56.9505 96.674 56.5905 96.854C56.2425 97.022 55.9305 97.298 55.6545 97.682L54.0705 96.638C54.4905 96.062 55.0125 95.63 55.6365 95.342C56.2605 95.042 56.9685 94.892 57.7605 94.892C59.0685 94.892 60.0765 95.216 60.7845 95.864C61.5045 96.512 61.8645 97.436 61.8645 98.636V104H59.9025V102.92ZM59.9025 100.328C59.6385 100.172 59.3445 100.046 59.0205 99.95C58.6965 99.854 58.3245 99.806 57.9045 99.806C57.2805 99.806 56.7825 99.95 56.4105 100.238C56.0385 100.526 55.8525 100.874 55.8525 101.282C55.8525 101.498 55.9005 101.69 55.9965 101.858C56.0925 102.014 56.2125 102.152 56.3565 102.272C56.5125 102.392 56.6865 102.482 56.8785 102.542C57.0825 102.602 57.2865 102.632 57.4905 102.632C57.8145 102.632 58.1205 102.572 58.4085 102.452C58.7085 102.32 58.9665 102.152 59.1825 101.948C59.3985 101.732 59.5725 101.486 59.7045 101.21C59.8365 100.934 59.9025 100.64 59.9025 100.328ZM64.5405 96.944H62.9925V95.18H64.5405V92.48H66.5385V95.18H68.7165V96.944H66.5385V100.868C66.5385 101.084 66.5625 101.282 66.6105 101.462C66.6585 101.642 66.7305 101.792 66.8265 101.912C67.0305 102.14 67.2885 102.254 67.6005 102.254C67.7925 102.254 67.9425 102.242 68.0505 102.218C68.1585 102.182 68.2725 102.134 68.3925 102.074L69.0045 103.838C68.7525 103.934 68.4885 104.006 68.2125 104.054C67.9365 104.114 67.6245 104.144 67.2765 104.144C66.8565 104.144 66.4845 104.078 66.1605 103.946C65.8365 103.814 65.5545 103.634 65.3145 103.406C64.7985 102.89 64.5405 102.188 64.5405 101.3V96.944ZM71.6112 93.614C71.2272 93.614 70.9032 93.482 70.6392 93.218C70.3872 92.954 70.2612 92.636 70.2612 92.264C70.2612 91.892 70.3872 91.574 70.6392 91.31C70.9032 91.046 71.2272 90.914 71.6112 90.914C71.9832 90.914 72.2952 91.046 72.5472 91.31C72.8112 91.574 72.9432 91.892 72.9432 92.264C72.9432 92.636 72.8112 92.954 72.5472 93.218C72.2952 93.482 71.9832 93.614 71.6112 93.614ZM70.6032 104V95.18H72.6012V104H70.6032ZM78.7819 94.892C79.4539 94.892 80.0719 95.012 80.6359 95.252C81.1999 95.48 81.6859 95.804 82.0939 96.224C82.5019 96.644 82.8199 97.142 83.0479 97.718C83.2759 98.294 83.3899 98.918 83.3899 99.59C83.3899 100.262 83.2759 100.886 83.0479 101.462C82.8199 102.038 82.5019 102.536 82.0939 102.956C81.6859 103.376 81.1999 103.706 80.6359 103.946C80.0719 104.174 79.4539 104.288 78.7819 104.288C78.1099 104.288 77.4919 104.174 76.9279 103.946C76.3639 103.706 75.8779 103.376 75.4699 102.956C75.0619 102.536 74.7439 102.038 74.5159 101.462C74.2879 100.886 74.1739 100.262 74.1739 99.59C74.1739 98.918 74.2879 98.294 74.5159 97.718C74.7439 97.142 75.0619 96.644 75.4699 96.224C75.8779 95.804 76.3639 95.48 76.9279 95.252C77.4919 95.012 78.1099 94.892 78.7819 94.892ZM78.7819 102.434C79.1179 102.434 79.4419 102.368 79.7539 102.236C80.0659 102.104 80.3419 101.918 80.5819 101.678C80.8339 101.438 81.0319 101.144 81.1759 100.796C81.3199 100.436 81.3919 100.034 81.3919 99.59C81.3919 99.146 81.3199 98.75 81.1759 98.402C81.0319 98.042 80.8339 97.742 80.5819 97.502C80.3419 97.262 80.0659 97.076 79.7539 96.944C79.4419 96.812 79.1179 96.746 78.7819 96.746C78.4459 96.746 78.1219 96.812 77.8099 96.944C77.4979 97.076 77.2159 97.262 76.9639 97.502C76.7239 97.742 76.5319 98.042 76.3879 98.402C76.2439 98.75 76.1719 99.146 76.1719 99.59C76.1719 100.034 76.2439 100.436 76.3879 100.796C76.5319 101.144 76.7239 101.438 76.9639 101.678C77.2159 101.918 77.4979 102.104 77.8099 102.236C78.1219 102.368 78.4459 102.434 78.7819 102.434ZM86.6226 96.368H86.7306C86.9946 95.948 87.3666 95.6 87.8466 95.324C88.3386 95.036 88.8906 94.892 89.5026 94.892C90.6186 94.892 91.4526 95.228 92.0046 95.9C92.5566 96.56 92.8326 97.442 92.8326 98.546V104H90.8346V98.816C90.8346 98.048 90.6546 97.514 90.2946 97.214C89.9466 96.902 89.4846 96.746 88.9086 96.746C88.5606 96.746 88.2546 96.818 87.9906 96.962C87.7266 97.106 87.4986 97.304 87.3066 97.556C87.1146 97.796 86.9706 98.078 86.8746 98.402C86.7786 98.714 86.7306 99.044 86.7306 99.392V104H84.7326V95.18H86.6226V96.368Z" fill="#219653"/>
<defs>
<clipPath id="clip0_865_17039">
<rect width="79" height="79" fill="white" transform="translate(13)"/>
</clipPath>
</defs>
</svg>
