<svg width="112" height="112" viewBox="0 0 112 112" fill="none" xmlns="http://www.w3.org/2000/svg">
<path d="M56 112C86.9279 112 112 86.9279 112 56C112 25.0721 86.9279 0 56 0C25.0721 0 0 25.0721 0 56C0 86.9279 25.0721 112 56 112Z" fill="#32BA7C"/>
<path d="M41.6904 81.2616L70.4854 110.057C94.334 103.697 112 81.9682 112 55.9998C112 55.4698 112 54.9398 112 54.4099L89.3876 33.5645L41.6904 81.2616Z" fill="#0AA06E"/>
<path d="M57.4128 68.543C59.886 71.0162 59.886 75.256 57.4128 77.7292L52.2898 82.8522C49.8166 85.3254 45.5769 85.3254 43.1037 82.8522L20.6684 60.2402C18.1952 57.767 18.1952 53.5273 20.6684 51.0541L25.7914 45.9311C28.2646 43.4579 32.5043 43.4579 34.9775 45.9311L57.4128 68.543Z" fill="white"/>
<path d="M77.022 29.5019C79.4952 27.0287 83.7349 27.0287 86.2081 29.5019L91.3311 34.6249C93.8043 37.0981 93.8043 41.3378 91.3311 43.811L52.4668 82.4987C49.9936 84.9719 45.7538 84.9719 43.2807 82.4987L38.1576 77.3757C35.6844 74.9025 35.6844 70.6627 38.1576 68.1896L77.022 29.5019Z" fill="white"/>
</svg>
