<svg width="13" height="20" viewBox="0 0 13 20" fill="none" xmlns="http://www.w3.org/2000/svg">
<path d="M2.6875 6.98039H9.78476C9.49087 6.06067 8.85425 5.31918 8.07178 4.87451C9.9988 3.17941 8.78832 0 6.23534 0C3.69119 0 2.46597 3.17749 4.40099 4.87631C3.59507 5.33424 2.97546 6.08369 2.6875 6.98039Z" fill="#415A6B"/>
<path d="M11.2941 8.15686C10.4098 8.15686 1.52882 8.15686 1.17647 8.15686C0.527765 8.15686 0 8.68463 0 9.33333V10.9804C0 11.6291 0.527765 12.1569 1.17647 12.1569H1.63506L2.45176 18.9639C2.52275 19.5545 3.0251 20 3.62 20H8.85059C9.44549 20 9.94784 19.5545 10.0188 18.9635L10.8355 12.1569H11.2941C11.9428 12.1569 12.4706 11.6291 12.4706 10.9804C12.4706 10.4334 12.4706 9.83333 12.4706 9.33333C12.4706 8.68463 11.9428 8.15686 11.2941 8.15686ZM7.4902 16.8627H4.98039C4.65569 16.8627 4.39216 16.5992 4.39216 16.2745C4.39216 15.9498 4.65569 15.6863 4.98039 15.6863H7.4902C7.8149 15.6863 8.07843 15.9498 8.07843 16.2745C8.07843 16.5992 7.8149 16.8627 7.4902 16.8627ZM7.4902 14.3529H4.98039C4.65569 14.3529 4.39216 14.0894 4.39216 13.7647C4.39216 13.44 4.65569 13.1765 4.98039 13.1765H7.4902C7.8149 13.1765 8.07843 13.44 8.07843 13.7647C8.07843 14.0894 7.8149 14.3529 7.4902 14.3529Z" fill="#415A6B"/>
</svg>
