<svg width="16" height="16" viewBox="0 0 16 16" fill="none" xmlns="http://www.w3.org/2000/svg">
<path d="M12.4331 8.54857V6.09524L8.68311 4.19048V3.04762H10.1831V1.52381H8.68311V0H7.18311V1.52381H5.68311V3.04762H7.18311V4.19048L3.43311 6.09524V8.54857L0.433105 9.90476V16H6.43311V13.7143C6.43311 12.8762 7.10811 12.1905 7.93311 12.1905C8.75811 12.1905 9.43311 12.8762 9.43311 13.7143V16H15.4331V9.90476L12.4331 8.54857ZM7.93311 9.52381C7.31061 9.52381 6.80811 9.01333 6.80811 8.38095C6.80811 7.74857 7.31061 7.2381 7.93311 7.2381C8.55561 7.2381 9.05811 7.74857 9.05811 8.38095C9.05811 9.01333 8.55561 9.52381 7.93311 9.52381Z" fill="#DF8A09"/>
</svg>
