<svg width="13" height="14" viewBox="0 0 13 14" fill="none" xmlns="http://www.w3.org/2000/svg">
<path d="M12.4331 13.4531V14H0.433105V13.4531C0.433105 13.2719 0.577025 13.125 0.754534 13.125H1.29025V3.28125C1.29025 2.91881 1.57806 2.625 1.93311 2.625H4.29025V0.65625C4.29025 0.293809 4.57806 0 4.93311 0H7.93311C8.28815 0 8.57596 0.293809 8.57596 0.65625V2.625H10.9331C11.2881 2.625 11.576 2.91881 11.576 3.28125V13.125H12.1117C12.2892 13.125 12.4331 13.2719 12.4331 13.4531ZM8.68311 5.25H7.61168C7.43417 5.25 7.29025 5.39692 7.29025 5.57812V6.67188C7.29025 6.85308 7.43417 7 7.61168 7H8.68311C8.86061 7 9.00453 6.85308 9.00453 6.67188V5.57812C9.00453 5.39692 8.86061 5.25 8.68311 5.25ZM4.18311 7H5.25453C5.43204 7 5.57596 6.85308 5.57596 6.67188V5.57812C5.57596 5.39692 5.43204 5.25 5.25453 5.25H4.18311C4.0056 5.25 3.86168 5.39692 3.86168 5.57812V6.67188C3.86168 6.85308 4.0056 7 4.18311 7ZM6.96882 10.5H5.89739C5.71988 10.5 5.57596 10.6469 5.57596 10.8281V13.125H7.29025V10.8281C7.29025 10.6469 7.14633 10.5 6.96882 10.5ZM8.68311 7.875H7.61168C7.43417 7.875 7.29025 8.02192 7.29025 8.20312V9.29688C7.29025 9.47808 7.43417 9.625 7.61168 9.625H8.68311C8.86061 9.625 9.00453 9.47808 9.00453 9.29688V8.20312C9.00453 8.02192 8.86061 7.875 8.68311 7.875ZM5.57596 8.20312C5.57596 8.02192 5.43204 7.875 5.25453 7.875H4.18311C4.0056 7.875 3.86168 8.02192 3.86168 8.20312V9.29688C3.86168 9.47808 4.0056 9.625 4.18311 9.625H5.25453C5.43204 9.625 5.57596 9.47808 5.57596 9.29688V8.20312ZM5.30811 2.625H6.00453V3.33594C6.00453 3.37945 6.02147 3.42118 6.05161 3.45195C6.08175 3.48271 6.12262 3.5 6.16525 3.5H6.70096C6.74359 3.5 6.78447 3.48271 6.8146 3.45195C6.84474 3.42118 6.86168 3.37945 6.86168 3.33594V2.625H7.55811C7.60073 2.625 7.64161 2.60771 7.67175 2.57695C7.70189 2.54618 7.71882 2.50445 7.71882 2.46094V1.91406C7.71882 1.87055 7.70189 1.82882 7.67175 1.79805C7.64161 1.76729 7.60073 1.75 7.55811 1.75H6.86168V1.03906C6.86168 0.99555 6.84474 0.95382 6.8146 0.923053C6.78447 0.892285 6.74359 0.875 6.70096 0.875H6.16525C6.12262 0.875 6.08175 0.892285 6.05161 0.923053C6.02147 0.95382 6.00453 0.99555 6.00453 1.03906V1.75H5.30811C5.26548 1.75 5.2246 1.76729 5.19446 1.79805C5.16432 1.82882 5.14739 1.87055 5.14739 1.91406V2.46094C5.14739 2.50445 5.16432 2.54618 5.19446 2.57695C5.2246 2.60771 5.26548 2.625 5.30811 2.625Z" fill="#DF8A09"/>
</svg>
