<svg width="12" height="13" viewBox="0 0 12 13" fill="none" xmlns="http://www.w3.org/2000/svg">
<path d="M6 6.14161C4.78667 5.04834 3.25333 4.28305 1.54667 3.98723C0.74 3.85217 0 4.46955 0 5.26057V9.27352C0 10.3539 0.48 10.9199 1.14 11.0035C2.80667 11.2093 4.32 11.8716 5.56 12.8492C5.79333 13.0357 6.17333 13.055 6.40667 12.8749C7.65333 11.8909 9.18 11.2157 10.86 11.0099C11.4867 10.9263 12 10.3282 12 9.71083V5.26057C12 4.46955 11.26 3.85217 10.4533 3.98723C8.74667 4.28305 7.21333 5.04834 6 6.14161ZM6 3.85861C7.10667 3.85861 8 2.99685 8 1.9293C8 0.861755 7.10667 0 6 0C4.89333 0 4 0.861755 4 1.9293C4 2.99685 4.89333 3.85861 6 3.85861Z" fill="#DF8A09"/>
</svg>
