<svg width="18" height="15" viewBox="0 0 18 15" fill="none" xmlns="http://www.w3.org/2000/svg">
<path d="M4.76811 4.95833H13.0981H4.76811ZM13.0981 4.95833C13.1477 4.75292 13.1831 4.54042 13.1831 4.31375C13.1831 3.38583 12.7227 2.52167 11.9506 2.01167L8.93311 0L5.91561 2.01167C5.53569 2.2634 5.22421 2.60551 5.00909 3.0073C4.79398 3.40909 4.68197 3.858 4.68311 4.31375C4.68311 4.54042 4.71853 4.75292 4.76811 4.95833" fill="#DF8A09"/>
<path d="M17.4331 4.25C17.4331 3.47083 16.0164 2.125 16.0164 2.125C16.0164 2.125 14.5998 3.47083 14.5998 4.25C14.5998 4.77417 14.8831 5.2275 15.3081 5.46833V8.5H13.8914V5.66667H3.97477V8.5H2.55811V5.46833C2.98311 5.2275 3.26644 4.77417 3.26644 4.25C3.26644 3.47083 1.84977 2.125 1.84977 2.125C1.84977 2.125 0.433105 3.47083 0.433105 4.25C0.433105 4.77417 0.716439 5.2275 1.14144 5.46833V14.1667H7.51644V9.91667H10.3498V14.1667H16.7248V5.46833C17.1498 5.2275 17.4331 4.77417 17.4331 4.25Z" fill="#DF8A09"/>
</svg>
