<svg width="17" height="17" viewBox="0 0 17 17" fill="none" xmlns="http://www.w3.org/2000/svg">
<path d="M15.3002 2.83325H10.2002V16.9999H16.4335V3.96659C16.4335 3.66601 16.3141 3.37774 16.1016 3.1652C15.889 2.95266 15.6008 2.83325 15.3002 2.83325ZM12.4669 12.4666H11.3335V11.3333H12.4669V12.4666ZM12.4669 9.63325H11.3335V8.49992H12.4669V9.63325ZM12.4669 6.79992H11.3335V5.66659H12.4669V6.79992ZM14.7335 12.4666H13.6002V11.3333H14.7335V12.4666ZM14.7335 9.63325H13.6002V8.49992H14.7335V9.63325ZM14.7335 6.79992H13.6002V5.66659H14.7335V6.79992Z" fill="#DF8A09"/>
<path d="M7.86533 0H1.20133C0.88272 0 0.577156 0.126569 0.351862 0.351862C0.126569 0.577156 0 0.88272 0 1.20133V17H2.83333V15.3H6.23333V17H9.06667V1.20133C9.06667 0.88272 8.9401 0.577156 8.7148 0.351862C8.48951 0.126569 8.18395 0 7.86533 0ZM2.83333 12.4667H1.7V11.3333H2.83333V12.4667ZM2.83333 9.63333H1.7V8.5H2.83333V9.63333ZM2.83333 6.8H1.7V5.66667H2.83333V6.8ZM2.83333 3.96667H1.7V2.83333H2.83333V3.96667ZM5.1 12.4667H3.96667V11.3333H5.1V12.4667ZM5.1 9.63333H3.96667V8.5H5.1V9.63333ZM5.1 6.8H3.96667V5.66667H5.1V6.8ZM5.1 3.96667H3.96667V2.83333H5.1V3.96667ZM7.36667 12.4667H6.23333V11.3333H7.36667V12.4667ZM7.36667 9.63333H6.23333V8.5H7.36667V9.63333ZM7.36667 6.8H6.23333V5.66667H7.36667V6.8ZM7.36667 3.96667H6.23333V2.83333H7.36667V3.96667Z" fill="#DF8A09"/>
</svg>
