<svg width="92" height="93" viewBox="0 0 92 93" fill="none" xmlns="http://www.w3.org/2000/svg">
<path d="M70.7987 90.2055H5.39072C3.40584 90.2055 1.79688 88.5965 1.79688 86.6116V5.39072C1.79688 3.40584 3.40584 1.79688 5.39072 1.79688H70.7987C72.7836 1.79688 74.3926 3.40584 74.3926 5.39072V86.6116C74.3926 88.5965 72.7836 90.2055 70.7987 90.2055Z" fill="white"/>
<path d="M38.0954 40.9695C46.2331 40.9695 52.8301 34.3726 52.8301 26.2348C52.8301 18.097 46.2331 11.5 38.0954 11.5C29.9576 11.5 23.3606 18.097 23.3606 26.2348C23.3606 34.3726 29.9576 40.9695 38.0954 40.9695Z" fill="#FE6663"/>
<path d="M42.7667 24.3488V25.5168C42.7667 28.097 40.6749 30.1888 38.0947 30.1888C35.5145 30.1888 33.4227 28.097 33.4227 25.5168V24.3488C33.4227 21.7686 35.5145 19.6768 38.0947 19.6768C40.6749 19.6768 42.7667 21.7686 42.7667 24.3488Z" fill="#FFCDAC"/>
<path d="M38.0948 30.1885C33.5342 30.1885 29.6378 33.0217 28.0623 37.0227C30.693 39.4705 34.218 40.97 38.0948 40.97C41.9717 40.97 45.4967 39.4705 48.1274 37.0227C46.5519 33.0217 42.6554 30.1885 38.0948 30.1885Z" fill="#A5DDFF"/>
<path d="M78.4477 28.8566L79.4745 27.0782C81.0624 24.328 84.579 23.3857 87.3294 24.9734C90.0796 26.5614 91.0219 30.0779 89.4341 32.8283L66.8214 71.9946L56.8618 66.2444L66.6159 49.3498L78.4477 28.8566Z" fill="#FFBC53"/>
<path d="M87.3296 24.9735C84.5794 23.3856 81.0627 24.3279 79.4747 27.0783L76.8051 31.7023L86.7647 37.4524L89.4344 32.8284C91.0221 30.0782 90.0798 26.5615 87.3296 24.9735Z" fill="#FE6663"/>
<path d="M66.8215 71.9953L55.2701 80.5026L56.8619 66.2451L66.8215 71.9953Z" fill="#9AD8FF"/>
<path d="M74.3926 71.5765C73.4003 71.5765 72.5957 72.381 72.5957 73.3734V86.6117C72.5957 87.6025 71.7896 88.4086 70.7988 88.4086H5.39077C4.39995 88.4086 3.59385 87.6025 3.59385 86.6117V5.39077C3.59385 4.39995 4.39995 3.59385 5.39077 3.59385H70.7988C71.7896 3.59385 72.5957 4.39995 72.5957 5.39077V24.9323C72.5957 25.9247 73.4003 26.7292 74.3926 26.7292C75.3849 26.7292 76.1895 25.9247 76.1895 24.9323V5.39077C76.1895 2.4183 73.7712 0 70.7988 0H5.39077C2.4183 0 0 2.4183 0 5.39077V86.6117C0 89.5842 2.4183 92.0024 5.39077 92.0024H70.7988C73.7712 92.0024 76.1895 89.5842 76.1895 86.6117V73.3734C76.1895 72.381 75.3849 71.5765 74.3926 71.5765Z" fill="#2D0353"/>
<path d="M54.6265 26.2348C54.6265 17.1192 47.2104 9.70312 38.0948 9.70312C28.9792 9.70312 21.5631 17.1192 21.5631 26.2348C21.5631 30.9638 23.5595 35.2347 26.753 38.2507C26.8128 38.3146 26.8764 38.3752 26.946 38.4304C29.8877 41.122 33.8027 42.7663 38.0946 42.7663C42.3866 42.7663 46.3015 41.1218 49.2433 38.4304C49.3128 38.3752 49.3764 38.3144 49.4363 38.2507C52.6301 35.2347 54.6265 30.9638 54.6265 26.2348ZM38.0948 13.297C45.2288 13.297 51.0326 19.1009 51.0326 26.2348C51.0326 29.104 50.0927 31.7568 48.5062 33.9046C47.1809 31.9391 45.3443 30.4105 43.2119 29.4668C44.0582 28.373 44.5637 27.0028 44.5637 25.516V24.348C44.5637 20.781 41.6619 17.8791 38.0948 17.8791C34.5277 17.8791 31.6259 20.781 31.6259 24.348V25.516C31.6259 27.0028 32.1314 28.373 32.9777 29.4668C30.8453 30.4105 29.0087 31.9391 27.6834 33.9046C26.0969 31.7568 25.157 29.104 25.157 26.2348C25.157 19.1009 30.9608 13.297 38.0948 13.297ZM35.2197 25.516V24.348C35.2197 22.7628 36.5096 21.473 38.0948 21.473C39.68 21.473 40.9699 22.7628 40.9699 24.348V25.516C40.9699 27.1013 39.68 28.3911 38.0948 28.3911C36.5096 28.3911 35.2197 27.1013 35.2197 25.516ZM30.2798 36.5369C31.8591 33.7364 34.8063 31.985 38.0948 31.985C41.3833 31.985 44.3305 33.7364 45.9098 36.5369C43.7368 38.1894 41.029 39.1727 38.0948 39.1727C35.1606 39.1727 32.4526 38.1894 30.2798 36.5369Z" fill="#2D0353"/>
<path d="M47.7982 78.7056H38.0948C37.1025 78.7056 36.2979 79.51 36.2979 80.5025C36.2979 81.4949 37.1025 82.2994 38.0948 82.2994H47.7982C48.7904 82.2994 49.5951 81.4949 49.5951 80.5025C49.5951 79.51 48.7904 78.7056 47.7982 78.7056Z" fill="#2D0353"/>
<path d="M47.7981 68.6421H22.2818C21.2895 68.6421 20.4849 69.4466 20.4849 70.439C20.4849 71.4315 21.2895 72.2359 22.2818 72.2359H47.7981C48.7903 72.2359 49.595 71.4315 49.595 70.439C49.595 69.4466 48.7903 68.6421 47.7981 68.6421Z" fill="#2D0353"/>
<path d="M47.7981 58.5796H22.2818C21.2895 58.5796 20.4849 59.3841 20.4849 60.3765C20.4849 61.369 21.2895 62.1734 22.2818 62.1734H47.7981C48.7903 62.1734 49.595 61.369 49.595 60.3765C49.595 59.3841 48.7903 58.5796 47.7981 58.5796Z" fill="#2D0353"/>
<path d="M15.8774 49.0436C15.5434 48.7094 15.0798 48.5171 14.6054 48.5171C14.1326 48.5171 13.669 48.7094 13.335 49.0436C13.0007 49.3778 12.8085 49.8414 12.8085 50.314C12.8085 50.7866 13.0006 51.2502 13.335 51.5844C13.671 51.9187 14.1326 52.1109 14.6054 52.1109C15.0798 52.1109 15.5416 51.9187 15.8774 51.5844C16.2117 51.2502 16.4041 50.7866 16.4041 50.314C16.4041 49.8414 16.2118 49.3778 15.8774 49.0436Z" fill="#2D0353"/>
<path d="M15.8774 59.1061C15.5416 58.7719 15.0798 58.5796 14.6054 58.5796C14.1326 58.5796 13.671 58.7719 13.335 59.1061C13.0007 59.4403 12.8085 59.9039 12.8085 60.3765C12.8085 60.8491 13.0006 61.3127 13.335 61.6469C13.671 61.9812 14.1326 62.1734 14.6054 62.1734C15.0798 62.1734 15.5416 61.9812 15.8774 61.6469C16.2117 61.3127 16.4041 60.8491 16.4041 60.3765C16.4041 59.9039 16.2118 59.4403 15.8774 59.1061Z" fill="#2D0353"/>
<path d="M14.6054 68.6421C14.1326 68.6421 13.671 68.8344 13.335 69.1686C13.0007 69.5028 12.8085 69.9664 12.8085 70.439C12.8085 70.9116 13.0006 71.3752 13.335 71.7094C13.669 72.0437 14.1326 72.2359 14.6054 72.2359C15.0798 72.2359 15.5434 72.0437 15.8774 71.7094C16.2117 71.3752 16.4041 70.9116 16.4041 70.439C16.4041 69.9664 16.2118 69.5028 15.8774 69.1686C15.5416 68.8344 15.0798 68.6421 14.6054 68.6421Z" fill="#2D0353"/>
<path d="M47.7981 48.5171H22.2818C21.2895 48.5171 20.4849 49.3216 20.4849 50.314C20.4849 51.3065 21.2895 52.1109 22.2818 52.1109H47.7981C48.7903 52.1109 49.595 51.3065 49.595 50.314C49.595 49.3216 48.7903 48.5171 47.7981 48.5171Z" fill="#2D0353"/>
<path d="M88.2281 23.4181C86.4823 22.4102 84.4486 22.1425 82.5011 22.6641C80.5539 23.186 78.9263 24.4348 77.9186 26.1805L55.3057 65.3468C55.1819 65.5616 55.1036 65.7996 55.0761 66.046L53.4844 80.3035C53.4053 81.0129 53.7535 81.7021 54.3717 82.0591C54.6507 82.2201 54.9607 82.2999 55.27 82.2999C55.6459 82.2999 56.0204 82.1822 56.3357 81.9499L67.8871 73.4425C68.0867 73.2955 68.2538 73.1088 68.3776 72.8941L90.9903 33.7278C93.0711 30.1239 91.832 25.499 88.2281 23.4181ZM58.3429 69.1753L63.5435 72.178L57.5116 76.6204L58.3429 69.1753ZM66.1638 69.5408L59.3166 65.5876L77.4629 34.1576L84.31 38.1109L66.1638 69.5408ZM87.878 31.9307L86.1068 34.9986L79.2596 31.0454L81.0308 27.9775C81.5588 27.063 82.4112 26.4089 83.4312 26.1356C84.4515 25.8621 85.5167 26.0027 86.4309 26.5306C87.3454 27.0585 87.9995 27.911 88.2728 28.9309C88.5461 29.9509 88.4059 31.0162 87.878 31.9307Z" fill="#2D0353"/>
</svg>
