<svg width="95" height="88" viewBox="0 0 95 88" fill="none" xmlns="http://www.w3.org/2000/svg">
<path d="M92.7425 19.2062H89.603C89.1968 19.2062 88.8643 18.9477 88.7535 18.5414C88.3473 17.064 87.7563 15.6236 86.9807 14.2939C86.796 13.9615 86.8329 13.5183 87.1284 13.2598L89.3445 11.0437C89.6769 10.7113 89.6769 10.1573 89.3445 9.78792L84.7646 5.17112C84.4322 4.83871 83.8782 4.83871 83.5088 5.17112L81.2928 7.38718C81.0342 7.68266 80.591 7.71959 80.2586 7.53492C78.929 6.7593 77.4885 6.16835 76.0112 5.76207C75.6418 5.65126 75.3463 5.28192 75.3463 4.91257V1.77315C75.3463 1.293 74.9401 0.886719 74.4599 0.886719H67.9964C67.5162 0.886719 67.1099 1.293 67.1099 1.77315V4.91257C67.1099 5.31885 66.8514 5.65126 66.4451 5.76207C64.9677 6.16835 63.5273 6.7593 62.1977 7.53492C61.8653 7.71959 61.422 7.68266 61.1635 7.38718L58.9474 5.17112C58.615 4.83871 58.061 4.83871 57.6917 5.17112L53.1118 9.75099C52.7794 10.0834 52.7794 10.6374 53.1118 11.0068L55.3279 13.2228C55.6233 13.4814 55.6603 13.9246 55.4756 14.257C54.7 15.5866 54.109 17.0271 53.7027 18.5045C53.5919 18.8738 53.2226 19.1693 52.8533 19.1693H49.7138C49.2337 19.1693 48.8274 19.5756 48.8274 20.0557V26.5192C48.8274 26.9994 49.2337 27.2579 49.7138 27.2579H52.8533C53.2965 27.3318 53.6289 27.6273 53.7027 28.0335C54.109 29.5109 54.7 30.9514 55.4756 32.281C55.6603 32.6134 55.6233 33.0566 55.3279 33.3152L53.1118 35.5312C52.7794 35.8637 52.7794 36.4177 53.1118 36.787L57.6917 41.3669C58.0241 41.6993 58.5781 41.6993 58.9474 41.3669L61.1635 39.1508C61.422 38.8553 61.8653 38.8184 62.1977 39.0031C63.5273 39.7787 64.9677 40.3697 66.4451 40.7759C66.8145 40.8867 67.1099 41.2561 67.1099 41.6254V44.7649C67.1099 45.245 67.5162 45.6513 67.9964 45.6513H74.4599C74.9401 45.6513 75.3463 45.245 75.3463 44.7649V41.6254C75.3463 41.2192 75.6049 40.8867 76.0112 40.7759C77.4885 40.3697 78.929 39.7787 80.2586 39.0031C80.591 38.8184 81.0342 38.8553 81.2928 39.1508L83.5088 41.3669C83.8413 41.6993 84.3953 41.6993 84.7646 41.3669L89.3445 36.787C89.6769 36.4546 89.6769 35.9006 89.3445 35.5312L87.1284 33.3152C86.8329 33.0566 86.796 32.6134 86.9807 32.281C87.7563 30.9514 88.3473 29.5109 88.7535 28.0335C88.8643 27.6273 89.1968 27.2949 89.603 27.2579H92.7425C93.2226 27.2579 93.6289 26.9994 93.6289 26.5192V20.0557C93.6289 19.5756 93.2226 19.2062 92.7425 19.2062Z" fill="#FCDD86"/>
<path d="M71.2465 35.3817C77.9168 35.3817 83.3241 29.9744 83.3241 23.3041C83.3241 16.6339 77.9168 11.2266 71.2465 11.2266C64.5763 11.2266 59.1689 16.6339 59.1689 23.3041C59.1689 29.9744 64.5763 35.3817 71.2465 35.3817Z" fill="#F5C84C"/>
<path d="M68.6243 28.1071L65.0047 24.4875C64.1921 23.675 64.1921 22.3823 65.0047 21.6067C65.8172 20.7941 67.1099 20.7941 67.8856 21.6067L70.0647 23.7858L74.6815 19.169C75.4941 18.3934 76.7868 18.3934 77.5624 19.2059C78.338 19.9815 78.338 21.2742 77.5624 22.0499L71.5051 28.1071C70.7295 28.8827 69.4368 28.8827 68.6243 28.1071Z" fill="#EDF4FC"/>
<path d="M55.4755 32.3556C54.6999 31.026 54.109 29.5855 53.7027 28.1081C53.5919 27.7019 53.2595 27.3695 52.8532 27.3325H49.7138C49.2336 27.3325 48.8273 27.074 48.8273 26.5938V22.9004H3.17634C1.9575 22.9004 0.92334 23.8976 0.92334 25.1534V65.1903C0.92334 66.4092 1.92057 67.4433 3.17634 67.4433H10.674V34.9041C10.674 33.6853 11.6713 32.6511 12.927 32.6511H55.5863C55.5494 32.5403 55.5125 32.4295 55.4755 32.3556Z" fill="#87D147"/>
<path d="M55.4756 32.3551C54.7 31.0255 54.109 29.585 53.7027 28.1077C53.5919 27.7014 53.2595 27.369 52.8533 27.332H14.5522C14.1459 27.332 13.7766 27.5906 13.6658 27.9969C12.5578 31.6903 9.67687 34.5712 5.98342 35.6792C5.57715 35.79 5.3186 36.1594 5.3186 36.5656V53.814C5.3186 54.2203 5.57715 54.5897 5.98342 54.7005C7.75628 55.2175 9.34446 56.1778 10.6741 57.4706V34.9036C10.6741 33.6848 11.6713 32.6506 12.9271 32.6506H55.5864C55.5495 32.5398 55.5125 32.429 55.4756 32.3551Z" fill="#B2E26D"/>
<path d="M10.6741 68.3291H3.17636C1.44044 68.3291 0 66.9256 0 65.1528V25.1158C0 23.3799 1.40351 21.9395 3.17636 21.9395H48.8274C49.3444 21.9395 49.7507 22.3457 49.7507 22.8628V26.3347H52.8532C53.7027 26.3716 54.4045 26.9995 54.6261 27.812C54.9954 29.2155 55.5864 30.5821 56.2881 31.8379C56.3989 32.0226 56.4728 32.2442 56.5097 32.4658C56.5836 32.9829 56.2142 33.4261 55.7341 33.4999C55.6972 33.4999 55.6602 33.4999 55.5864 33.4999H12.9271C12.1884 33.4999 11.5974 34.0909 11.5974 34.8296V67.3688C11.5974 67.9228 11.1911 68.3291 10.6741 68.3291ZM3.17636 23.8231C2.43767 23.8231 1.84672 24.4141 1.84672 25.1527V65.1897C1.84672 65.9284 2.43767 66.5193 3.17636 66.5193H9.7507V34.9034C9.7507 33.1675 11.1542 31.7271 12.9271 31.7271H54.109C53.5919 30.656 53.1487 29.511 52.8163 28.3291C52.8163 28.2922 52.7793 28.2552 52.7424 28.2183H49.7138C48.6796 28.2183 47.904 27.5166 47.904 26.5563V23.8231H3.17636Z" fill="black"/>
<path d="M66.0019 83.2863H65.2263V82.5107C65.2263 81.9567 64.7461 81.4766 64.1921 81.4766C63.6381 81.4766 63.1579 81.9567 63.1579 82.5107V83.2863H62.3823C61.8283 83.2863 61.3481 83.7665 61.3481 84.3205C61.3481 84.8745 61.8283 85.3547 62.3823 85.3547H63.1579V86.1303C63.1579 86.6843 63.6381 87.1645 64.1921 87.1645C64.7461 87.1645 65.2263 86.6843 65.2263 86.1303V85.3547H66.0019C66.5559 85.3547 67.036 84.8745 67.036 84.3205C67.036 83.7665 66.5559 83.2863 66.0019 83.2863Z" fill="#70D6F9"/>
<path d="M44.6168 11.3005C43.1394 11.0419 41.9944 9.89697 41.6989 8.45653C41.6989 8.4196 41.662 8.38266 41.6251 8.4196C41.5881 8.4196 41.5881 8.45653 41.5881 8.45653C41.2927 9.93391 40.1477 11.0419 38.6703 11.3005C38.6334 11.3005 38.5964 11.3374 38.5964 11.3744C38.5964 11.4113 38.6334 11.4113 38.6703 11.4482C40.1477 11.7068 41.2927 12.8517 41.5881 14.2922C41.5881 14.3291 41.6251 14.366 41.662 14.3291C41.6989 14.3291 41.6989 14.2922 41.6989 14.2922C41.9944 12.8148 43.1394 11.7068 44.6168 11.4482C44.6537 11.4482 44.6906 11.4113 44.6906 11.3744C44.6906 11.3005 44.6537 11.3005 44.6168 11.3005Z" fill="#F5C84C"/>
<path d="M48.0148 5.80005C48.6267 5.80005 49.1228 5.30397 49.1228 4.69202C49.1228 4.08007 48.6267 3.58398 48.0148 3.58398C47.4028 3.58398 46.9067 4.08007 46.9067 4.69202C46.9067 5.30397 47.4028 5.80005 48.0148 5.80005Z" fill="#FC657E"/>
<path d="M15.1432 17.9876C15.7551 17.9876 16.2512 17.4915 16.2512 16.8795C16.2512 16.2676 15.7551 15.7715 15.1432 15.7715C14.5312 15.7715 14.0352 16.2676 14.0352 16.8795C14.0352 17.4915 14.5312 17.9876 15.1432 17.9876Z" fill="#87D147"/>
<path d="M55.0324 82.6223C55.6443 82.6223 56.1404 82.1262 56.1404 81.5143C56.1404 80.9023 55.6443 80.4062 55.0324 80.4062C54.4204 80.4062 53.9243 80.9023 53.9243 81.5143C53.9243 82.1262 54.4204 82.6223 55.0324 82.6223Z" fill="#F5C84C"/>
<path d="M10.6741 58.3563C10.4156 58.3563 10.194 58.2455 10.0462 58.0978C8.8274 56.9159 7.35002 56.0295 5.7249 55.5493C4.94928 55.3277 4.39526 54.589 4.39526 53.7765V36.5281C4.39526 35.7155 4.91235 34.9768 5.7249 34.7552C9.12287 33.758 11.7822 31.0987 12.7794 27.7007C13.001 26.9251 13.7397 26.3711 14.5522 26.3711H52.8533C53.7028 26.408 54.4045 27.0359 54.6261 27.8485C54.9955 29.252 55.5864 30.6186 56.2882 31.8743C56.399 32.059 56.4729 32.2806 56.5098 32.5022C56.5837 33.0193 56.2143 33.4625 55.7342 33.5364C55.6972 33.5364 55.6603 33.5364 55.5864 33.5364H12.9271C12.1884 33.5364 11.5975 34.1273 11.5975 34.866V57.433C11.5975 57.9501 11.1912 58.3563 10.6741 58.3563ZM9.75076 34.8291C8.67966 35.5678 7.49776 36.1218 6.24199 36.5281V53.8134C7.49776 54.1827 8.67966 54.7737 9.75076 55.5124V34.903C9.75076 34.866 9.75076 34.8291 9.75076 34.8291ZM14.5522 28.2178C14.1829 29.4736 13.5919 30.6555 12.8533 31.7266H54.0721C53.555 30.6555 53.1118 29.5105 52.7794 28.3286C52.7794 28.2917 52.7425 28.2548 52.7055 28.2178H14.5522Z" fill="black"/>
<path d="M84.7646 41.4408C84.4322 41.7732 83.8782 41.7732 83.5088 41.4408L81.2928 39.2247C81.0342 38.9292 80.591 38.8923 80.2586 39.077C78.929 39.8526 77.4885 40.4436 76.0111 40.8498C75.6418 40.9606 75.3463 41.33 75.3463 41.6993V44.8388C75.3463 45.3189 74.94 45.7252 74.4599 45.7252H67.9964C67.5162 45.7252 67.1099 45.3189 67.1099 44.8388V41.6993C67.1099 41.2931 66.8514 40.9606 66.4451 40.8498C64.9677 40.4436 63.5273 39.8526 62.1976 39.077C61.8652 38.8923 61.422 38.9292 61.1635 39.2247L58.9474 41.4408C58.615 41.7732 58.061 41.7732 57.6916 41.4408L53.1118 36.8609C52.7794 36.5285 52.7794 35.9745 53.1118 35.6051L55.3278 33.3891C55.5125 33.2044 55.6233 32.9089 55.5864 32.6504H12.9271C11.7082 32.6504 10.6741 33.6476 10.6741 34.9034V74.9403C10.6741 76.1592 11.6713 77.1933 12.9271 77.1933H82.9548C84.1737 77.1933 85.2078 76.1961 85.2078 74.9403V41.0345L84.7646 41.4408Z" fill="#87D147"/>
<path d="M80.1107 45.3921C78.3009 44.8381 76.6758 43.8778 75.3461 42.5482V44.8381C75.3461 45.3182 74.9398 45.7245 74.4597 45.7245H67.9592C67.4791 45.7245 67.0728 45.3182 67.0728 44.8381V41.6987C67.0728 41.2924 66.8143 40.96 66.408 40.8492C64.9306 40.4429 63.4902 39.8519 62.1605 39.0763C61.8281 38.8916 61.3849 38.9286 61.1264 39.2241L58.9103 41.4401C58.5779 41.7725 58.0239 41.7725 57.6545 41.4401L53.2593 37.0449H24.3027C23.8964 37.0449 23.5271 37.3035 23.4163 37.7097C22.3082 41.4032 19.4274 44.2841 15.7339 45.3921C15.3276 45.5029 15.0691 45.8723 15.0691 46.2785V63.5269C15.0691 63.9332 15.3276 64.3025 15.7339 64.4134C19.4274 65.5214 22.3082 68.4023 23.4163 72.0957C23.5271 72.502 23.8964 72.7605 24.3027 72.7605H71.5419C71.9482 72.7605 72.3175 72.502 72.4283 72.0957C73.5363 68.4023 76.4172 65.5214 80.1107 64.4134C80.5169 64.3025 80.7755 63.9332 80.7755 63.5269V46.2785C80.7755 45.8723 80.5169 45.5029 80.1107 45.3921Z" fill="#B2E26D"/>
<path d="M47.9408 67.4436C54.8762 67.4436 60.4985 61.8213 60.4985 54.8858C60.4985 47.9504 54.8762 42.3281 47.9408 42.3281C41.0053 42.3281 35.3831 47.9504 35.3831 54.8858C35.3831 61.8213 41.0053 67.4436 47.9408 67.4436Z" fill="#87D147"/>
<path d="M82.9548 78.0772H12.9271C11.1912 78.0772 9.75073 76.6737 9.75073 74.9008V34.8639C9.75073 33.1279 11.1542 31.6875 12.9271 31.6875H55.5864C56.0296 31.6875 56.4359 32.0199 56.5098 32.4631C56.5836 33.0171 56.399 33.6081 55.9927 33.9774L53.8135 36.1566L58.3195 40.6626L60.4987 38.4834C61.0527 37.8925 61.9391 37.7817 62.6778 38.188C63.9336 38.9267 65.3002 39.4807 66.7037 39.85C67.4793 40.0716 68.0333 40.7734 68.0333 41.6229V44.7254H74.423V41.6229C74.423 40.8103 74.977 40.0716 75.7526 39.85C77.1561 39.4807 78.5227 38.8897 79.7785 38.188C80.4802 37.7817 81.3666 37.8925 81.9576 38.4834L84.1367 40.6626L84.5061 40.2932C84.8754 39.9239 85.4664 39.9239 85.7988 40.2932C85.9835 40.4779 86.0573 40.6995 86.0573 40.958V74.8639C86.0943 76.6737 84.6908 78.0772 82.9548 78.0772ZM12.9271 33.5712C12.1884 33.5712 11.5975 34.1621 11.5975 34.9008V74.9377C11.5975 75.6764 12.1884 76.2674 12.9271 76.2674H82.9548C83.6935 76.2674 84.2845 75.6764 84.2845 74.9377V42.6201C83.7674 42.657 83.2503 42.4724 82.9179 42.103L80.7018 39.8869C79.3353 40.6626 77.8209 41.2905 76.3066 41.6967V44.7992C76.3066 45.7965 75.4941 46.609 74.4968 46.609H68.0333C67.0361 46.609 66.2235 45.7965 66.2235 44.7992V41.6967C64.6723 41.2905 63.1949 40.6626 61.8283 39.8869L59.6123 42.103C58.9105 42.8048 57.7655 42.8048 57.0638 42.103L52.447 37.5231C51.7452 36.8214 51.7452 35.6764 52.447 34.9747L53.8505 33.5712H12.9271Z" fill="black"/>
<path d="M28.5502 55.8077H25.8909C25.3738 55.8077 24.9675 55.4014 24.9675 54.8843C24.9675 54.3672 25.3738 53.9609 25.8909 53.9609H28.5502C29.0673 53.9609 29.4735 54.3672 29.4735 54.8843C29.4735 55.4014 29.0303 55.8077 28.5502 55.8077Z" fill="black"/>
<path d="M69.9908 55.8077H67.3316C66.8145 55.8077 66.4082 55.4014 66.4082 54.8843C66.4082 54.3672 66.8145 53.9609 67.3316 53.9609H69.9908C70.5079 53.9609 70.9142 54.3672 70.9142 54.8843C70.9142 55.4014 70.471 55.8077 69.9908 55.8077Z" fill="black"/>
<path d="M71.5421 73.6854H24.303C23.4904 73.6854 22.7517 73.1314 22.5301 72.3557C21.5329 68.9578 18.8736 66.2985 15.4756 65.3013C14.7 65.0797 14.146 64.341 14.146 63.5284V46.28C14.146 45.4675 14.6631 44.7288 15.4756 44.5072C18.8736 43.5099 21.5329 40.8507 22.5301 37.4527C22.7517 36.6771 23.4904 36.123 24.303 36.123H53.2965C53.5551 36.123 53.7767 36.2338 53.9613 36.3816L58.3196 40.7399L60.4987 38.5607C61.0528 37.9698 61.9392 37.859 62.6779 38.2652C63.9336 39.0039 65.3002 39.5579 66.7037 39.9273C67.4794 40.1489 68.0334 40.8507 68.0334 41.7001V44.8026H74.423V42.5496C74.423 42.0326 74.8293 41.6263 75.3464 41.6263C75.6049 41.6263 75.8265 41.7371 76.0112 41.8848C77.23 43.1037 78.7444 43.9901 80.4064 44.5072C81.182 44.7288 81.7361 45.4675 81.7361 46.28V63.5284C81.7361 64.341 81.182 65.0797 80.4064 65.3013C77.0084 66.2985 74.3492 68.9578 73.3519 72.3557C73.0934 73.1314 72.3547 73.6854 71.5421 73.6854ZM24.303 37.9698C23.1211 41.9587 19.9816 45.0612 15.9927 46.2431V63.5284C19.9816 64.7103 23.0841 67.8497 24.266 71.8387H71.5052C72.6871 67.8497 75.8265 64.7473 79.8155 63.5654V46.28C78.5228 45.9107 77.3408 45.3197 76.2328 44.5441V44.8396C76.2328 45.8368 75.4203 46.6494 74.423 46.6494H67.9595C66.9623 46.6494 66.1497 45.8368 66.1497 44.8396V41.7371C64.5985 41.3308 63.1211 40.7029 61.7545 39.9273L59.5384 42.1434C58.8367 42.8451 57.6917 42.8451 56.99 42.1434L52.8533 38.0067L24.303 37.9698Z" fill="black"/>
<path d="M47.941 68.4036C40.4803 68.4036 34.46 62.3832 34.46 54.9225C34.46 47.4617 40.4803 41.4414 47.941 41.4414C55.4018 41.4414 61.4221 47.4617 61.4221 54.9225C61.4221 62.3463 55.3649 68.3666 47.941 68.4036ZM47.941 43.2512C41.5144 43.2512 36.3067 48.459 36.3067 54.8856C36.3067 61.3121 41.5144 66.5199 47.941 66.5199C54.3676 66.5199 59.5754 61.3121 59.5754 54.8856C59.5754 48.459 54.3676 43.2512 47.941 43.2512Z" fill="black"/>
<path d="M74.4597 46.6482H67.9962C66.9989 46.6482 66.1864 45.8357 66.1864 44.8384V41.7359C64.6351 41.3297 63.1577 40.7018 61.7912 39.9262L59.5751 42.1422C58.8733 42.844 57.7284 42.844 57.0266 42.1422L52.4467 37.5254C51.745 36.8237 51.745 35.6787 52.4467 34.9769L54.6628 32.7609C53.8503 31.3574 53.2593 29.88 52.8161 28.3287C52.8161 28.2918 52.7792 28.2549 52.7422 28.2179H49.7136C48.6794 28.2179 47.9038 27.5162 47.9038 26.5559V20.0554C47.9038 19.0582 48.7164 18.2456 49.7136 18.2456H52.8161C53.2224 16.6944 53.8503 15.217 54.6259 13.8504L52.4098 11.6344C51.7081 10.9326 51.7081 9.78763 52.4098 9.08588L56.9897 4.506C57.6914 3.80425 58.8364 3.80425 59.5382 4.506L61.7542 6.72207C63.1208 5.94645 64.6351 5.31856 66.1494 4.91228V1.80979C66.1494 0.812558 66.962 0 67.9592 0H74.4227C75.42 0 76.2325 0.812558 76.2325 1.80979V4.91228C77.7838 5.31856 79.2612 5.94645 80.6277 6.72207L82.8438 4.506C83.5456 3.80425 84.6905 3.80425 85.3923 4.506L89.9722 9.08588C90.6739 9.78763 90.6739 10.9326 89.9722 11.6344L87.7561 13.8504C88.5317 15.217 89.1596 16.7313 89.5659 18.2456H92.6684C93.6656 18.2456 94.4782 19.0582 94.4782 20.0554V26.5189C94.4782 27.4792 93.7025 28.181 92.6684 28.181H89.6397C89.6028 28.2179 89.6028 28.2549 89.5659 28.2918C89.1596 29.843 88.5317 31.3204 87.7192 32.7239L89.9352 34.94C90.637 35.6418 90.637 36.7867 89.9352 37.4885L85.4292 42.1053C84.7275 42.807 83.5825 42.807 82.8807 42.1053L80.6647 39.8892C79.2981 40.6648 77.7838 41.2927 76.2695 41.699V44.8015C76.2695 45.8357 75.4569 46.6482 74.4597 46.6482ZM68.0331 44.8015H74.4227V41.699C74.4227 40.8864 74.9768 40.1478 75.7524 39.9262C77.1559 39.5568 78.5225 38.9659 79.7782 38.2641C80.48 37.8578 81.3664 37.9686 81.9574 38.5596L84.1365 40.7387L88.6795 36.2327L86.5003 34.0536C85.9094 33.4996 85.7986 32.6131 86.2048 31.8744C86.9435 30.6187 87.4975 29.2521 87.8669 27.8486C88.0516 27.036 88.7903 26.4451 89.6397 26.3712H92.7422V20.1293H89.6397C88.8272 20.1293 88.0885 19.5753 87.8669 18.7996C87.4975 17.3961 86.9066 16.0296 86.2048 14.7738C85.7986 14.072 85.9094 13.1856 86.5003 12.5947L88.6795 10.4155L84.1734 5.90951L81.9943 8.08865C81.4403 8.6796 80.5539 8.7904 79.8152 8.38412C78.5594 7.64543 77.1928 7.09142 75.7893 6.72207C75.0137 6.50046 74.4597 5.79871 74.4597 4.94922V1.84672H68.07V4.94922C68.07 5.76178 67.516 6.50046 66.7404 6.72207C65.3369 7.09142 63.9703 7.68237 62.7145 8.38412C62.0128 8.7904 61.1263 8.6796 60.5354 8.08865L58.3563 5.90951L53.8133 10.4155L55.9925 12.5947C56.5834 13.1487 56.6942 14.0351 56.2879 14.7738C55.5492 16.0296 54.9952 17.3961 54.6259 18.7996C54.4043 19.5753 53.7025 20.1293 52.853 20.1293H49.7505V26.3712H52.853C53.7025 26.4081 54.4043 27.036 54.6259 27.8486C54.9952 29.2521 55.5862 30.6187 56.2879 31.8744C56.6942 32.5762 56.5834 33.4626 55.9925 34.0536L53.8133 36.2327L58.3193 40.7387L60.4985 38.5596C61.0525 37.9686 61.9389 37.8578 62.6776 38.2641C63.9334 39.0028 65.2999 39.5568 66.7034 39.9262C67.4791 40.1478 68.0331 40.8495 68.0331 41.699V44.8015Z" fill="black"/>
<path d="M71.2465 36.3085C64.0812 36.3085 58.2456 30.5098 58.2456 23.3076C58.2456 16.1423 64.0443 10.3066 71.2465 10.3066C78.4118 10.3066 84.2475 16.1053 84.2475 23.3076C84.2105 30.4729 78.4118 36.3085 71.2465 36.3085ZM71.2465 12.1534C65.0785 12.1534 60.0923 17.1395 60.0923 23.3076C60.0923 29.4756 65.0785 34.4618 71.2465 34.4618C77.4146 34.4618 82.3638 29.4756 82.3638 23.3076C82.3638 17.1764 77.3777 12.1903 71.2465 12.1534Z" fill="black"/>
<path d="M70.0647 29.62C69.289 29.62 68.5134 29.3246 67.9594 28.7706L64.3398 25.151C63.1579 24.006 63.1579 22.1224 64.3029 20.9774C65.4479 19.7955 67.3315 19.7955 68.4765 20.9404L68.5134 20.9774L70.0647 22.5286L74.0167 18.5766C75.1616 17.3947 77.0453 17.3947 78.1902 18.5397C79.3352 19.6847 79.3722 21.5683 78.2272 22.7133L78.1902 22.7502L72.133 28.8075C71.6159 29.3246 70.8772 29.62 70.0647 29.62ZM69.289 27.4409C69.5107 27.6625 69.7692 27.7733 70.0647 27.7733C70.3601 27.7733 70.6556 27.6625 70.8403 27.4409L76.8975 21.3837C77.3408 20.9405 77.3408 20.2387 76.8975 19.7955C76.4543 19.3892 75.7526 19.3892 75.3094 19.7955L70.6926 24.4123C70.3232 24.7816 69.7323 24.7816 69.3998 24.4123L67.2207 22.2332C66.7775 21.8269 66.0757 21.8269 65.6325 22.2332C65.1893 22.6764 65.1893 23.3781 65.6325 23.8213L69.289 27.4409Z" fill="black"/>
</svg>
