<svg width="80" height="99" viewBox="0 0 80 99" fill="none" xmlns="http://www.w3.org/2000/svg">
<path d="M30.7394 9.64453H48.7288V25.7078H30.7394V9.64453Z" fill="#E7F9F9"/>
<path d="M39.7341 9.64453H48.7289V25.7078H39.7341V9.64453Z" fill="#B1E2FF"/>
<path d="M78.1829 24.5961L74.195 20.6111C71.7771 18.1947 67.8433 18.1947 65.4262 20.6111L57.0504 28.9809L69.8102 41.7324L78.1829 33.3649C79.3546 32.194 80 30.6367 80 28.9809C80 27.3242 79.3546 25.7678 78.1829 24.5961Z" fill="#0099FA"/>
<path d="M79.4676 59.0393C79.4676 80.9075 61.6423 98.6982 39.7342 98.6982C17.8253 98.6982 0 80.9075 0 59.0393C0 37.1711 17.8253 19.3789 39.7342 19.3789C61.6423 19.3789 79.4676 37.1711 79.4676 59.0393Z" fill="#0052C2"/>
<path d="M79.4676 59.0393C79.4676 80.9075 61.6423 98.6982 39.7341 98.6982V19.3789C61.6423 19.3789 79.4676 37.1711 79.4676 59.0393Z" fill="#00204C"/>
<path d="M68.2041 59.04C68.2041 74.7087 55.433 87.4587 39.7342 87.4587C24.0346 87.4587 11.2635 74.7087 11.2635 59.04C11.2635 43.3698 24.0346 30.6221 39.7342 30.6221C55.433 30.6221 68.2041 43.3698 68.2041 59.04Z" fill="white"/>
<path d="M68.204 59.04C68.204 74.7087 55.4329 87.4587 39.7341 87.4587V30.6221C55.4329 30.6221 68.204 43.3698 68.204 59.04Z" fill="#E7F9F9"/>
<path d="M50.8765 54.6479C50.2576 57.2413 48.6152 64.1268 46.1243 66.6117C44.3472 68.3874 42.0701 69.2736 39.7342 69.2736C37.3976 69.2736 35.0015 68.3874 33.2244 66.6117C31.4985 64.8904 30.5482 62.602 30.5482 60.1675C30.5482 57.7322 31.4985 55.4423 33.2244 53.7209C33.6966 53.2488 34.9089 52.038 39.7342 50.4822C41.1973 50.0101 42.9955 49.5048 45.2071 48.9807C46.8103 48.6012 48.4646 49.0696 49.6288 50.2337C50.7914 51.3979 51.2576 53.0485 50.8765 54.6479Z" fill="#FF573A"/>
<path d="M54.311 4.56702V10.863C54.311 13.3803 52.2643 15.4277 49.7462 15.4277H29.7236C27.2041 15.4277 25.1566 13.3803 25.1566 10.863V4.56702C25.1566 2.04895 27.2041 0 29.7236 0H49.7462C52.2643 0 54.311 2.04895 54.311 4.56702Z" fill="#29DCFF"/>
<path d="M49.7462 15.4277H39.7341V0H49.7462C52.2643 0 54.3109 2.04895 54.3109 4.56702V10.863C54.3109 13.3803 52.2643 15.4277 49.7462 15.4277Z" fill="#0099FA"/>
<path d="M50.8764 54.6479C50.2575 57.2413 48.6152 64.1268 46.1242 66.6117C44.3471 68.3874 42.07 69.2736 39.7341 69.2736V50.4822C41.1972 50.0101 42.9954 49.5048 45.207 48.9807C46.8102 48.6012 48.4646 49.0696 49.6287 50.2337C50.7914 51.3979 51.2575 53.0485 50.8764 54.6479Z" fill="#F30238"/>
</svg>
