<svg width="119" height="104" viewBox="0 0 119 104" fill="none" xmlns="http://www.w3.org/2000/svg">
<path d="M62.7666 103.295C60.2415 103.295 58.7356 100.793 59.5143 98.6507L74.3406 57.8775C74.9939 56.0814 76.9801 55.155 78.7762 55.8075C80.5723 56.4608 81.4987 58.447 80.8453 60.2431L66.019 101.015C65.5071 102.421 64.1806 103.295 62.7666 103.295V103.295Z" fill="#3AB4FB"/>
<path d="M99.8333 103.294C98.4239 103.294 97.0991 102.427 96.5845 101.026L81.6095 60.253C80.9508 58.4587 81.8718 56.4707 83.6651 55.8119C85.4585 55.1523 87.4474 56.0733 88.1062 57.8666L103.081 98.6399C103.925 100.936 102.194 103.294 99.8333 103.294V103.294Z" fill="#1D9CFD"/>
<path d="M107.247 0H55.3527C49.3481 0 44.4799 4.8682 44.4799 10.8728V51.6478C44.4799 57.6524 49.3481 62.5206 55.3527 62.5206H107.247C113.252 62.5206 118.12 57.6524 118.12 51.6478V10.8728C118.12 4.8682 113.252 0 107.247 0V0Z" fill="#EFF6FE"/>
<path d="M107.247 0H80.8453V62.5206H107.247C113.252 62.5206 118.12 57.6524 118.12 51.6478V10.8728C118.12 4.8682 113.252 0 107.247 0V0Z" fill="#D9E4EF"/>
<path d="M37.0658 21.9941C37.0658 30.3184 30.3177 37.0665 21.9935 37.0665C13.6692 37.0665 6.92114 30.3184 6.92114 21.9941C6.92114 13.669 13.6692 6.9209 21.9935 6.9209C30.3177 6.9209 37.0658 13.669 37.0658 21.9941Z" fill="#FFCFBE"/>
<path d="M55.6589 58.4487C53.9494 57.5934 53.2573 55.5153 54.1116 53.8058L63.3785 35.272C64.2337 33.5624 66.3128 32.8703 68.0214 33.7246C69.731 34.5799 70.4231 36.658 69.5687 38.3676L60.3018 56.9004C59.4457 58.6127 57.3658 59.3021 55.6589 58.4487V58.4487Z" fill="#FFB826"/>
<path d="M37.0676 21.9938C37.0676 30.3181 30.3195 37.0661 21.9926 37.0661V6.91968C30.3195 6.91968 37.0676 13.6678 37.0676 21.9938Z" fill="#F9BCAA"/>
<path d="M99.8334 19.8958H62.7667C60.8553 19.8958 59.3062 18.3458 59.3062 16.4353C59.3062 14.5239 60.8553 12.9747 62.7667 12.9747H99.8334C101.744 12.9747 103.294 14.5239 103.294 16.4353C103.294 18.3458 101.745 19.8958 99.8334 19.8958Z" fill="#3AB4FB"/>
<path d="M99.8333 34.7209H84.3059C82.3945 34.7209 80.8453 33.1718 80.8453 31.2604C80.8453 29.3489 82.3945 27.7998 84.3059 27.7998H99.8333C101.745 27.7998 103.294 29.3489 103.294 31.2604C103.294 33.1718 101.745 34.7209 99.8333 34.7209Z" fill="#1D9CFD"/>
<path d="M99.8333 49.5471H84.3059C82.3945 49.5471 80.8453 47.997 80.8453 46.0865C80.8453 44.1751 82.3945 42.626 84.3059 42.626H99.8333C101.745 42.626 103.294 44.1751 103.294 46.0865C103.294 47.997 101.745 49.5471 99.8333 49.5471Z" fill="#1D9CFD"/>
<path d="M99.8333 12.9747H80.8453V19.8958H99.8333C101.745 19.8958 103.294 18.3458 103.294 16.4353C103.294 14.5239 101.745 12.9747 99.8333 12.9747Z" fill="#1D9CFD"/>
<path d="M33.1132 103.294H10.8737C8.96229 103.294 7.41315 101.745 7.41315 99.8338V80.4899C3.10819 79.0417 0 74.9674 0 70.1803V59.0606C0 53.1767 2.28991 47.6525 6.44708 43.5061C10.5258 39.4165 16.1943 37.0671 21.9943 37.0671H25.0521C31.1224 37.0671 34.6803 39.2904 39.6666 41.7695C45.1575 44.5001 52.0083 47.9066 56.3773 50.083C60.4083 52.0863 62.3386 56.7842 60.8877 61.0369C60.8832 61.0504 60.8787 61.0639 60.8742 61.0774C60.0009 63.6602 58.0436 65.7411 55.5031 66.7864C52.9546 67.8237 50.0987 67.7138 47.6529 66.4908C44.1653 64.7461 39.8549 62.5914 36.5746 60.9522V99.8338C36.5737 101.745 35.0246 103.294 33.1132 103.294V103.294Z" fill="#FF7579"/>
<path d="M56.3773 50.083C52.0083 47.9066 45.1575 44.5001 39.6657 41.7695C34.6803 39.2904 31.1225 37.0671 25.0521 37.0671H21.9935C21.9935 37.0671 21.9935 37.0671 21.9926 37.0671V103.294H33.1132C35.0246 103.294 36.5737 101.745 36.5737 99.8338V60.9522C39.855 62.5914 44.1653 64.7461 47.6529 66.4908C50.0978 67.7138 52.9546 67.8228 55.5022 66.7864C58.0427 65.7411 60.001 63.6602 60.8742 61.0765C60.8787 61.063 60.8832 61.0495 60.8877 61.036C62.3386 56.7842 60.4083 52.0863 56.3773 50.083V50.083Z" fill="#FE4A60"/>
</svg>
