<svg width="89" height="99" viewBox="0 0 89 99" fill="none" xmlns="http://www.w3.org/2000/svg">
<path fill-rule="evenodd" clip-rule="evenodd" d="M25.0428 97.1518H83.0988C83.3211 97.1518 83.5251 97.0282 83.6282 96.8312L88.9009 86.7556C88.9918 86.5821 88.9918 86.3751 88.9009 86.2016L83.6282 76.1204C83.5251 75.9234 83.3212 75.7998 83.0986 75.7998H25.0428L19.0627 85.4007L25.0428 97.1518Z" fill="#FFD772"/>
<path fill-rule="evenodd" clip-rule="evenodd" d="M25.0428 97.151V75.7988V74.9805C25.0428 74.4139 24.5794 73.9561 24.0128 73.9561H1.02442C0.457877 73.9561 0 74.4139 0 74.9805V97.9693C0 98.5302 0.452076 98.9937 1.01301 98.9993H1.02442H24.0126H24.024C24.5848 98.9935 25.0427 98.53 25.0427 97.9693V97.151H25.0428Z" fill="#F9F7F8"/>
<path fill-rule="evenodd" clip-rule="evenodd" d="M1.02442 62.019H24.0126C24.5792 62.019 25.0427 61.5555 25.0427 60.9946V60.1763V38.8183V38.0056C25.0427 37.4391 24.5792 36.9756 24.0126 36.9756H1.02442C0.457877 36.9756 0 37.4391 0 38.0056V60.9946C0 61.5553 0.457877 62.019 1.02442 62.019Z" fill="#F9F7F8"/>
<path fill-rule="evenodd" clip-rule="evenodd" d="M25.0428 38.8193L18.676 49.05L25.0428 60.1773H83.0986C83.321 60.1773 83.525 60.0538 83.6282 59.8567L88.9011 49.7753C88.9918 49.6019 88.9918 49.395 88.9011 49.2213L83.6282 39.1399C83.5251 38.9429 83.3212 38.8193 83.0986 38.8193H25.0428Z" fill="#75CEF8"/>
<path fill-rule="evenodd" clip-rule="evenodd" d="M25.0429 23.1957H83.0989C83.3213 23.1957 83.5253 23.0722 83.6283 22.8751L88.9011 12.7995C88.9919 12.6261 88.9919 12.419 88.9011 12.2456L83.6283 2.16434C83.5253 1.96731 83.3213 1.84375 83.0987 1.84375H25.0429L19.4496 11.4091L25.0429 23.1957Z" fill="#EB5468"/>
<path fill-rule="evenodd" clip-rule="evenodd" d="M25.0428 23.1949V1.84272V1.02442C25.0428 0.457877 24.5794 0 24.0128 0H1.02442C0.457877 0 0 0.457877 0 1.02442V24.0132C0 24.5798 0.457877 25.0432 1.02442 25.0432H24.0126C24.5792 25.0432 25.0427 24.5798 25.0427 24.0132V23.1949H25.0428Z" fill="#F9F7F8"/>
<path fill-rule="evenodd" clip-rule="evenodd" d="M17.775 1.84272V23.1949V24.0132C17.775 24.5798 17.3115 25.0432 16.745 25.0432H24.0128C24.5794 25.0432 25.0429 24.5798 25.0429 24.0132V23.1949V1.84272V1.02442C25.0429 0.457877 24.5794 0 24.0128 0H16.745C17.3115 0 17.775 0.457877 17.775 1.02442V1.84272Z" fill="#DDDAEC"/>
<path fill-rule="evenodd" clip-rule="evenodd" d="M24.0128 36.9756H16.745C17.3115 36.9756 17.775 37.4391 17.775 38.0056V38.8183V60.1761V60.9944C17.775 61.5553 17.3115 62.0188 16.745 62.0188H24.0128C24.5794 62.0188 25.0429 61.5553 25.0429 60.9944V60.1761V38.8183V38.0056C25.0429 37.4391 24.5794 36.9756 24.0128 36.9756Z" fill="#DDDAEC"/>
<path fill-rule="evenodd" clip-rule="evenodd" d="M24.0128 73.9561H16.745C17.3115 73.9561 17.775 74.4139 17.775 74.9805V75.7988V97.151V97.9693C17.775 98.5302 17.3171 98.9937 16.7564 98.9993H24.0128H24.0242C24.585 98.9935 25.0429 98.53 25.0429 97.9693V97.151V75.7988V74.9805C25.0429 74.4139 24.5794 73.9561 24.0128 73.9561Z" fill="#DDDAEC"/>
<path fill-rule="evenodd" clip-rule="evenodd" d="M74.3728 1.84375C75.7004 5.50638 76.4445 9.58686 76.4445 13.8905C76.4445 17.1525 76.021 20.283 75.2369 23.1959H83.0988C83.3211 23.1959 83.5251 23.0724 83.6282 22.8753L88.9009 12.7997C88.9918 12.6263 88.9918 12.4192 88.9009 12.2458L83.6282 2.16453C83.5251 1.9675 83.3211 1.84394 83.0986 1.84394H74.3728V1.84375Z" fill="#E5384F"/>
<path fill-rule="evenodd" clip-rule="evenodd" d="M74.3728 38.8176C75.7004 42.4802 76.4445 46.5607 76.4445 50.8699C76.4445 54.1263 76.021 57.2566 75.2369 60.1754H83.0986C83.3209 60.1754 83.5249 60.0518 83.6282 59.8548L88.9011 49.7734C88.9918 49.5999 88.9918 49.393 88.9011 49.2194L83.6282 39.138C83.5251 38.9409 83.3211 38.8174 83.0986 38.8174H74.3728V38.8176Z" fill="#60B7FF"/>
<path fill-rule="evenodd" clip-rule="evenodd" d="M74.3728 75.7998C75.7004 79.4624 76.4445 83.5429 76.4445 87.8465C76.4445 91.1029 76.021 94.239 75.2369 97.152H83.0988C83.3211 97.152 83.5251 97.0284 83.6282 96.8314L88.9009 86.7558C88.9918 86.5823 88.9918 86.3752 88.9009 86.2018L83.6282 76.1206C83.5251 75.9236 83.3211 75.8 83.0986 75.8H74.3728V75.7998Z" fill="#FBBA58"/>
<path d="M13.6946 19.5098C12.8695 19.5098 12.2007 18.841 12.2007 18.0159V8.51612H11.3428C10.5177 8.51612 9.84888 7.84729 9.84888 7.02222C9.84888 6.19715 10.5177 5.52832 11.3428 5.52832H13.6948C14.5199 5.52832 15.1887 6.19715 15.1887 7.02222V18.0159C15.1887 18.841 14.5199 19.5098 13.6946 19.5098Z" fill="#2B4D66"/>
<path d="M11.9788 56.6C9.8304 56.6 9.66141 56.5435 9.46205 56.4772C8.96821 56.309 8.60605 55.9377 8.45967 55.4557C8.21353 54.6453 8.59425 54.1474 9.28532 53.2434C9.8422 52.5149 10.879 51.159 12.6252 48.6635C13.2117 47.8272 13.4524 47.2323 13.5503 46.8635L13.5781 46.6317C13.54 45.9398 12.9626 45.3884 12.2586 45.3884C11.6292 45.3884 11.0861 45.8333 10.9666 46.4463C10.809 47.2562 10.0251 47.7853 9.21455 47.6271C8.40476 47.4695 7.87592 46.6851 8.0337 45.8751C8.42584 43.8618 10.2024 42.4004 12.2586 42.4004C14.635 42.4004 16.5682 44.3311 16.5682 46.7044C16.5682 46.7639 16.5646 46.8235 16.5576 46.8827L16.506 47.3119C16.4994 47.3668 16.4897 47.4212 16.4772 47.4751C16.2664 48.3727 15.794 49.3496 15.0726 50.378C14.0955 51.7743 13.3351 52.8225 12.7534 53.6074C13.6176 53.6037 14.5931 53.5952 15.5185 53.5834C16.3447 53.5662 17.0209 54.2331 17.0315 55.0581C17.0422 55.8832 16.3818 56.5605 15.5568 56.5712C13.976 56.5913 12.824 56.6 11.9788 56.6Z" fill="#2B4D66"/>
<path d="M16.8251 83.6621C16.8251 81.2858 14.8944 79.3525 12.5213 79.3525C10.4713 79.3525 8.6928 80.8138 8.29216 82.8268C8.1309 83.636 8.65645 84.4226 9.46566 84.5837C10.2756 84.7455 11.0617 84.2194 11.2225 83.4102C11.3459 82.7903 11.8921 82.3405 12.5213 82.3405C13.247 82.3405 13.8371 82.9334 13.8371 83.6621C13.8371 84.3909 13.2468 84.984 12.5213 84.984C11.6963 84.984 11.0274 85.6528 11.0274 86.4779C11.0274 87.3029 11.6963 87.9718 12.5213 87.9718C13.247 87.9718 13.8371 88.5621 13.8371 89.2878C13.8371 90.0165 13.2468 90.6096 12.5213 90.6096C11.8653 90.6096 11.3034 90.1233 11.2158 89.49C11.2044 89.402 11.1997 89.3435 11.1997 89.2878C11.1997 88.4627 10.5309 87.7939 9.70582 87.7939C8.88075 87.7939 8.21191 88.4627 8.21191 89.2878C8.21191 89.4757 8.22448 89.6569 8.25445 89.887C8.54662 92.0023 10.3808 93.5974 12.5213 93.5974C14.8944 93.5974 16.8251 91.6642 16.8251 89.2878C16.8251 88.214 16.4289 87.2316 15.7764 86.4769C16.4289 85.721 16.8251 84.7372 16.8251 83.6621Z" fill="#2B4D66"/>
<path d="M42.4457 10.4624H33.2321C32.407 10.4624 31.7382 9.79358 31.7382 8.96851C31.7382 8.14344 32.407 7.47461 33.2321 7.47461H42.4457C43.2707 7.47461 43.9396 8.14344 43.9396 8.96851C43.9396 9.79358 43.2707 10.4624 42.4457 10.4624Z" fill="#2B4D66"/>
<path d="M51.9625 17.7974H33.2321C32.407 17.7974 31.7382 17.1285 31.7382 16.3035C31.7382 15.4784 32.407 14.8096 33.2321 14.8096H51.9625C52.7877 14.8096 53.4564 15.4784 53.4564 16.3035C53.4566 17.1285 52.7877 17.7974 51.9625 17.7974Z" fill="#2B4D66"/>
<path d="M42.4457 47.1978H33.2321C32.407 47.1978 31.7382 46.5289 31.7382 45.7039C31.7382 44.8788 32.407 44.21 33.2321 44.21H42.4457C43.2707 44.21 43.9396 44.8788 43.9396 45.7039C43.9398 46.5287 43.2707 47.1978 42.4457 47.1978Z" fill="#2B4D66"/>
<path d="M51.9625 54.5405H33.2321C32.407 54.5405 31.7382 53.8717 31.7382 53.0466C31.7382 52.2216 32.407 51.5527 33.2321 51.5527H51.9625C52.7877 51.5527 53.4564 52.2216 53.4564 53.0466C53.4566 53.8717 52.7877 54.5405 51.9625 54.5405Z" fill="#2B4D66"/>
<path d="M42.4457 84.4067H33.2321C32.407 84.4067 31.7382 83.7379 31.7382 82.9128C31.7382 82.0878 32.407 81.4189 33.2321 81.4189H42.4457C43.2707 81.4189 43.9396 82.0878 43.9396 82.9128C43.9398 83.7379 43.2707 84.4067 42.4457 84.4067Z" fill="#2B4D66"/>
<path d="M51.9625 91.7437H33.2321C32.407 91.7437 31.7382 91.0748 31.7382 90.2498C31.7382 89.4247 32.407 88.7559 33.2321 88.7559H51.9625C52.7877 88.7559 53.4564 89.4247 53.4564 90.2498C53.4566 91.0748 52.7877 91.7437 51.9625 91.7437Z" fill="#2B4D66"/>
</svg>
