<svg width="61" height="100" viewBox="0 0 61 100" fill="none" xmlns="http://www.w3.org/2000/svg">
<path d="M10.6826 54.7968C9.07361 54.7968 7.76917 53.4924 7.76917 51.8834V22.3363C7.76917 10.0201 17.7892 0 30.1055 0C42.4217 0 52.4418 10.0201 52.4418 22.3363V33.3378C52.4418 34.9468 51.1374 36.2513 49.5284 36.2513H41.7592C40.1502 36.2513 38.8458 34.9468 38.8458 33.3378C38.8458 31.7288 40.1502 30.4244 41.7592 30.4244H46.6149V22.3363C46.6149 13.233 39.2088 5.82686 30.1055 5.82686C21.0022 5.82686 13.596 13.233 13.596 22.3363V51.8834C13.596 53.4924 12.2916 54.7968 10.6826 54.7968Z" fill="#0A6F90"/>
<path d="M30.1055 99.4449C13.5053 99.4449 0 85.9396 0 69.3395V51.8832C0 50.2742 1.30444 48.9697 2.91343 48.9697H57.2975C58.9065 48.9697 60.2109 50.2742 60.2109 51.8832V69.3395C60.2109 85.9396 46.7056 99.4449 30.1055 99.4449Z" fill="#FFDC3E"/>
<path d="M57.2975 48.9702H30.1055V99.4454C46.7056 99.4454 60.2109 85.9401 60.2109 69.34V51.8836C60.2109 50.2745 58.9065 48.9702 57.2975 48.9702Z" fill="#FFAE23"/>
<path d="M37.8746 70.3234C37.8746 66.0394 34.3894 62.5542 30.1055 62.5542C25.8215 62.5542 22.3363 66.0394 22.3363 70.3234C22.3363 73.5773 24.3479 76.3685 27.192 77.5236V82.9482C27.192 84.5572 28.4965 85.8617 30.1055 85.8617C31.7144 85.8617 33.0189 84.5572 33.0189 82.9482V77.5236C35.863 76.3685 37.8746 73.5773 37.8746 70.3234Z" fill="#FFAE23"/>
<path d="M30.1055 0V5.82687C39.2088 5.82687 46.6149 13.233 46.6149 22.3363V30.4244H41.7592C40.1502 30.4244 38.8458 31.7288 38.8458 33.3378C38.8458 34.9468 40.1502 36.2513 41.7592 36.2513H49.5284C51.1373 36.2513 52.4418 34.9468 52.4418 33.3378V22.3363C52.4418 10.0201 42.4217 0 30.1055 0Z" fill="#0A6D8E"/>
<path d="M30.1055 62.5537V85.8612C31.7145 85.8612 33.0189 84.5567 33.0189 82.9477V77.5231C35.863 76.368 37.8746 73.5768 37.8746 70.3229C37.8746 66.039 34.3894 62.5537 30.1055 62.5537Z" fill="#DE9000"/>
</svg>
