<svg width="117" height="117" viewBox="0 0 117 117" fill="none" xmlns="http://www.w3.org/2000/svg">
<path d="M84.837 9.24368C84.837 4.13838 88.9756 0 94.0807 0H22.1309C18.0711 0 14.7799 3.2912 14.7799 7.35098V91.0602H84.8368V23.196V18.4876V9.24368H84.837Z" fill="#FFE07D"/>
<path d="M88.4999 0C83.3946 0 79.2562 4.13861 79.2562 9.24368V45.901C79.2562 48.0579 77.8397 49.9766 75.7637 50.5619C60.4561 54.8783 49.2361 68.9444 49.2361 85.633C49.2361 90.0204 50.012 94.2267 51.4333 98.1222H79.2562H84.837V49.2062V23.1958V9.24368C84.837 4.13838 88.9756 0 94.0807 0H88.4999Z" fill="#FFD064"/>
<path d="M73.6648 15.9429H27.3529C26.3778 15.9429 25.5873 15.1526 25.5873 14.1773C25.5873 13.2019 26.3776 12.4116 27.3529 12.4116H73.6648C74.6399 12.4116 75.4304 13.2019 75.4304 14.1773C75.4304 15.1526 74.6399 15.9429 73.6648 15.9429Z" fill="#2B4D66"/>
<path d="M73.6649 33.5489H27.3531C26.3779 33.5489 25.5874 32.7586 25.5874 31.7832C25.5874 30.8079 26.3777 30.0176 27.3531 30.0176H73.6649C74.64 30.0176 75.4306 30.8079 75.4306 31.7832C75.4306 32.7586 74.64 33.5489 73.6649 33.5489Z" fill="#2B4D66"/>
<path d="M73.6649 51.1553H27.3531C26.3779 51.1553 25.5874 50.365 25.5874 49.3897C25.5874 48.4145 26.3777 47.624 27.3531 47.624H73.6649C74.64 47.624 75.4306 48.4143 75.4306 49.3897C75.4306 50.365 74.64 51.1553 73.6649 51.1553Z" fill="#2B4D66"/>
<path d="M73.6649 68.7613H27.3531C26.3779 68.7613 25.5874 67.971 25.5874 66.9956C25.5874 66.0203 26.3777 65.23 27.3531 65.23H73.6649C74.64 65.23 75.4306 66.0203 75.4306 66.9956C75.4306 67.971 74.64 68.7613 73.6649 68.7613Z" fill="#2B4D66"/>
<path d="M76.3914 98.1227H13.0691C5.85127 98.1227 0 92.2715 0 85.0535V82.739C0 82.1274 0.496021 81.6313 1.10765 81.6313H76.3914V98.1227Z" fill="#EAB14D"/>
<path d="M49.2361 85.6336C49.2361 90.021 50.012 94.2272 51.4333 98.1227H76.3914V81.6313H49.4559C49.3122 82.946 49.2361 84.281 49.2361 85.6336Z" fill="#E49542"/>
<path d="M85.6739 116.959C102.975 116.959 117 102.934 117 85.6332C117 68.3323 102.975 54.3071 85.6739 54.3071C68.373 54.3071 54.3478 68.3323 54.3478 85.6332C54.3478 102.934 68.373 116.959 85.6739 116.959Z" fill="#DD636E"/>
<path d="M85.6738 54.3071C84.8433 54.3071 84.0206 54.34 83.2063 54.4035C99.3538 55.6618 112.065 69.1629 112.065 85.6332C112.065 102.104 99.3536 115.605 83.2063 116.863C84.0206 116.926 84.8433 116.959 85.6738 116.959C102.975 116.959 117 102.934 117 85.6332C117 68.3323 102.975 54.3071 85.6738 54.3071Z" fill="#DA4A54"/>
<path d="M85.6739 108.999C98.5784 108.999 109.04 98.5379 109.04 85.6334C109.04 72.7288 98.5784 62.2676 85.6739 62.2676C72.7693 62.2676 62.3081 72.7288 62.3081 85.6334C62.3081 98.5379 72.7693 108.999 85.6739 108.999Z" fill="#F4FBFF"/>
<path d="M85.6738 62.2676C84.591 62.2676 83.5261 62.343 82.4827 62.4853C93.8774 64.0417 102.657 73.8113 102.657 85.6334C102.657 97.4554 93.8772 107.225 82.4827 108.781C83.5261 108.924 84.591 108.999 85.6738 108.999C98.5783 108.999 109.04 98.5379 109.04 85.6331C109.04 72.7288 98.5783 62.2676 85.6738 62.2676Z" fill="#DAF1F4"/>
<path d="M85.6739 71.2244C84.6987 71.2244 83.9082 70.4341 83.9082 69.4587V68.6499C83.9082 67.6748 84.6985 66.8843 85.6739 66.8843C86.649 66.8843 87.4395 67.6746 87.4395 68.6499V69.4587C87.4395 70.4341 86.6492 71.2244 85.6739 71.2244Z" fill="#365E7D"/>
<path d="M97.1112 75.9621C96.6593 75.9621 96.2074 75.7896 95.8624 75.4446C95.1731 74.7551 95.1733 73.6371 95.8631 72.9478L96.435 72.3762C97.1245 71.6871 98.2424 71.6869 98.9317 72.3769C99.621 73.0664 99.6208 74.1843 98.9311 74.8737L98.3592 75.4453C98.0149 75.7898 97.5632 75.9621 97.1112 75.9621Z" fill="#365E7D"/>
<path d="M102.658 87.399H101.849C100.874 87.399 100.083 86.6087 100.083 85.6333C100.083 84.658 100.873 83.8677 101.849 83.8677H102.658C103.633 83.8677 104.423 84.658 104.423 85.6333C104.423 86.6087 103.633 87.399 102.658 87.399Z" fill="#365E7D"/>
<path d="M69.499 87.399H68.6902C67.7151 87.399 66.9246 86.6087 66.9246 85.6333C66.9246 84.658 67.7149 83.8677 68.6902 83.8677H69.499C70.4742 83.8677 71.2647 84.658 71.2647 85.6333C71.2647 86.6087 70.4744 87.399 69.499 87.399Z" fill="#365E7D"/>
<path d="M97.6832 99.4087C97.2315 99.4087 96.7798 99.2365 96.4351 98.8919L95.8632 98.3203C95.1734 97.6307 95.1732 96.5128 95.8625 95.8235C96.5518 95.1333 97.6698 95.133 98.3593 95.8228L98.9312 96.3945C99.6209 97.084 99.6212 98.2019 98.9319 98.8912C98.5871 99.2362 98.1352 99.4087 97.6832 99.4087Z" fill="#365E7D"/>
<path d="M85.6739 104.383C84.6987 104.383 83.9082 103.593 83.9082 102.617V101.809C83.9082 100.833 84.6985 100.043 85.6739 100.043C86.649 100.043 87.4395 100.833 87.4395 101.809V102.617C87.4395 103.593 86.6492 104.383 85.6739 104.383Z" fill="#365E7D"/>
<path d="M73.6649 99.4083C73.2132 99.4083 72.7613 99.2358 72.4163 98.8913C71.7268 98.2015 71.7268 97.0838 72.4163 96.3943L72.988 95.8226C73.6777 95.1333 74.7954 95.1333 75.485 95.8226C76.1745 96.5124 76.1745 97.6301 75.485 98.3197L74.9133 98.8913C74.5686 99.2358 74.1166 99.4083 73.6649 99.4083Z" fill="#365E7D"/>
<path d="M74.2366 75.9621C73.7849 75.9621 73.333 75.7896 72.988 75.445L72.4163 74.8734C71.7268 74.1836 71.7268 73.0659 72.4163 72.3764C73.1061 71.687 74.2238 71.687 74.9133 72.3764L75.485 72.948C76.1745 73.6378 76.1745 74.7555 75.485 75.445C75.1404 75.7898 74.6883 75.9621 74.2366 75.9621Z" fill="#365E7D"/>
<path d="M90.4863 87.3988H85.6739C84.6987 87.3988 83.9082 86.6085 83.9082 85.6331V76.3145C83.9082 75.3394 84.6985 74.5488 85.6739 74.5488C86.649 74.5488 87.4395 75.3391 87.4395 76.3145V83.8674H90.4863C91.4614 83.8674 92.2519 84.6577 92.2519 85.6331C92.2519 86.6085 91.4616 87.3988 90.4863 87.3988Z" fill="#2B4D66"/>
<path d="M101.679 23.1958H84.8367V9.24368C84.8367 4.13838 88.9753 0 94.0803 0C99.1856 0 103.324 4.13861 103.324 9.24368V21.5503C103.324 22.4592 102.588 23.1958 101.679 23.1958Z" fill="#EAB14D"/>
<path d="M97.092 0.504475C96.1477 0.179125 95.1356 0 94.0807 0C88.9757 0 84.837 4.13861 84.837 9.24368V23.1958H90.8597V9.24368C90.8594 5.19326 93.4659 1.75378 97.092 0.504475Z" fill="#E49542"/>
</svg>
