<svg width="106" height="107" viewBox="0 0 106 107" fill="none" xmlns="http://www.w3.org/2000/svg">
<path d="M53.0001 106C82.2712 106 106 82.2712 106 53.0001C106 23.729 82.2712 0 53.0001 0C23.729 0 0 23.729 0 53.0001C0 82.2712 23.729 106 53.0001 106Z" fill="#005C83"/>
<path d="M106 53.0006C106 52.759 105.994 52.5191 105.991 52.2783L90.162 36.3404L90.0854 36.4588L79.2527 25.6847L75.2551 32.3784L63.4978 20.6211L58.3632 41.2348L19.0166 72.8264L52.1806 105.99C52.4537 105.995 52.7261 106.001 53 106.001C82.2712 106.001 106 82.2718 106 53.0006Z" fill="#00263F"/>
<path d="M54.0321 84.1997L41.01 88.5945L31.848 62.4048L44.8703 58.0098L54.0321 84.1997Z" fill="#AE4E32"/>
<path d="M80.9604 70.5363C80.9604 70.5363 50.3263 62.0959 29.6565 69.3266L24.136 53.5461C44.8058 46.3153 63.4979 20.6191 63.4979 20.6191L80.9604 70.5363Z" fill="white"/>
<path d="M27.4841 63.1171L29.6565 69.327C50.3265 62.096 80.9606 70.5367 80.9606 70.5367L72.1338 45.3047L27.4841 63.1171Z" fill="#E0E0E0"/>
<path d="M63.4978 20.6191C63.4978 20.6191 61.1588 23.8335 57.2238 28.3064L71.2624 68.4364C77.1276 69.4811 80.9605 70.5363 80.9605 70.5363L63.4978 20.6191Z" fill="#FF6838"/>
<path d="M64.2678 48.4427L71.2624 68.4367C77.1276 69.4814 80.9606 70.5367 80.9606 70.5367L72.1338 45.3047L64.2678 48.4427Z" fill="#AE4E32"/>
<path d="M19.0166 72.8272L29.6564 69.3294L24.1359 53.5488L13.5659 57.2464L19.0166 72.8272Z" fill="#FF6838"/>
<path d="M17.0735 67.2724L19.0167 72.8269L29.6565 69.3291L27.4841 63.1191L17.0735 67.2724Z" fill="#AE4E32"/>
<path d="M76.4961 42.1354L78.113 45.9473L91.7767 40.1514L90.1598 36.3396L76.4961 42.1354Z" fill="#FFDC00"/>
<path d="M91.7792 40.1513L90.8707 38.0098L77.1656 43.7098L78.1151 45.9482L91.7792 40.1513Z" fill="#FFC000"/>
<path d="M70.6673 35.0192L74.463 36.6738L79.2541 25.6829L75.4583 24.0283L70.6673 35.0192Z" fill="#FFDC00"/>
<path d="M78.8289 56.1518L90.4822 58.9668L91.4543 54.9423L79.801 52.1273L78.8289 56.1518Z" fill="#FFC000"/>
</svg>
