<svg width="72" height="92" viewBox="0 0 72 92" fill="none" xmlns="http://www.w3.org/2000/svg">
<path d="M53.7813 66.5848L44.2803 56.2003V43.5679H27.7137V56.2042L18.3182 66.5848H53.7813Z" fill="#FFDDCE"/>
<path d="M52.0534 66.398L43.5359 63.8974L36 72.5385L22.9703 57.5964L9.11986 61.6617C3.71368 63.2485 0 68.2086 0 73.8429V87.2077C0 89.6888 2.01149 91.7001 4.49277 91.7001H10.586L11.6841 90.9165H12.2552L13.3533 91.7001H58.6403L60.2522 90.5499H61.589V79.1356C61.5892 73.2442 57.7062 68.0576 52.0534 66.398Z" fill="#407093"/>
<path d="M62.881 61.6611L49.0319 57.5953L42.5938 64.9777L51.1973 67.5036C56.6031 69.0906 60.3162 74.0507 60.3162 79.6845V90.5499H61.408V91.7001H67.5074C69.9886 91.7001 71.9999 89.6886 71.9999 87.2075V73.8422C71.9999 68.2082 68.2868 63.2481 62.881 61.6611Z" fill="#365E7D"/>
<path d="M13.3534 91.7V84.3516C13.3534 83.5874 12.7339 82.9679 11.9697 82.9679C11.2055 82.9679 10.5859 83.5874 10.5859 84.3516V91.7H13.3534Z" fill="#365E7D"/>
<path d="M61.408 91.7V84.3516C61.408 83.5874 60.7885 82.9679 60.0242 82.9679C59.26 82.9679 58.6405 83.5874 58.6405 84.3516V91.7H61.408Z" fill="#365E7D"/>
<path d="M11.0376 27.0775L9.61895 25.5132H6.58676L5.16809 27.0775L3.29845 38.051C3.12203 39.0868 3.91993 40.0322 4.97072 40.0322H11.2346C12.2854 40.0322 13.0833 39.0868 12.9069 38.051L11.0376 27.0775Z" fill="#E4F6FF"/>
<path d="M9.48672 24.4099V10.5338C9.48672 9.7696 8.86721 9.15009 8.10298 9.15009C7.33875 9.15009 6.71924 9.7696 6.71924 10.5338V24.4099H9.48672Z" fill="#407093"/>
<path d="M43.6665 9.42194H43.3614H28.6326H28.3274C22.782 9.42194 18.2867 13.9172 18.2867 19.4626V19.6207V29.1473L19.9472 30.6102H53.707V19.6207V19.4626C53.7072 13.9174 49.2117 9.42194 43.6665 9.42194Z" fill="#EFC984"/>
<path d="M43.6665 9.42194H43.3613H42.0614V30.6102H52.1742L53.707 29.1473V19.6207V19.4626C53.7071 13.9174 49.2117 9.42194 43.6665 9.42194Z" fill="#EABC6B"/>
<path d="M35.9999 50.8785C36.1668 50.8785 36.3329 50.8756 36.4984 50.8701C40.4599 48.354 43.1507 44.0164 43.3906 39.0338V21.4966H24.34V26.1117C24.34 27.7883 22.9808 29.1473 21.3044 29.1473H18.2898V34.1115C18.2898 35.3799 19.318 36.4083 20.5866 36.4083C20.9867 36.4083 21.3125 36.7219 21.3376 37.1213C21.8219 44.7998 28.1993 50.8785 35.9999 50.8785Z" fill="#FFDDCE"/>
<path d="M50.6957 29.1473C49.0191 29.1473 47.6601 27.7883 47.6601 26.1117V21.4966H42.0617V38.5824C41.8077 43.8609 38.7702 48.4069 34.3857 50.7877C34.9162 50.8457 35.4541 50.8785 36 50.8785C43.8006 50.8785 50.178 44.7998 50.6623 37.1213C50.6876 36.7219 51.0132 36.4083 51.4133 36.4083C52.6817 36.4083 53.7101 35.3801 53.7101 34.1115V29.1473H50.6957Z" fill="#FFCBBE"/>
<path d="M43.3905 15.6038V12.1834C41.7051 12.1701 40.3427 10.801 40.3427 9.11248V2.96534L39.0498 0.893673L36.4719 0.0737452C36.1628 -0.0245817 35.8309 -0.0245817 35.5218 0.0737452L7.45817 9C5.89264 9.4979 6.05061 11.7628 7.67004 12.0386L35.997 16.8631L43.3905 15.6038Z" fill="#407093"/>
<path d="M43.3905 12.2362L39.309 11.7313C37.1092 11.4592 34.8844 11.4592 32.6849 11.7315L17.1517 13.6536V20.5755C17.1517 21.3256 17.7598 21.9337 18.5099 21.9337H43.3905V12.2362Z" fill="#4A80AA"/>
<path d="M64.5358 9L39.0498 0.893677V9.01541C39.0498 10.6839 40.3961 12.0369 42.0614 12.0499V15.8304L64.3238 12.0388C65.9434 11.7626 66.1013 9.49791 64.5358 9Z" fill="#365E7D"/>
<path d="M42.0616 12.0718V21.9337H53.49C54.24 21.9337 54.8481 21.3256 54.8481 20.5755V13.6534L42.0616 12.0718Z" fill="#407093"/>
<path d="M11.0376 27.0775H5.16821V23.2246C5.16821 22.4059 5.83179 21.7424 6.65046 21.7424H9.55513C10.3738 21.7424 11.0374 22.4059 11.0374 23.2246V27.0775H11.0376Z" fill="#FFE07D"/>
<path d="M44.2804 51.5757C44.2804 56.9502 42.7202 62.2091 39.7894 66.7141L36.0001 72.5385L57.1413 59.9759L44.2804 51.5757Z" fill="#4A80AA"/>
<path d="M27.7198 51.5757C27.7198 56.9502 29.28 62.2091 32.2108 66.7141L36.0001 72.5385L14.8589 59.9759L27.7198 51.5757Z" fill="#4A80AA"/>
<path d="M43.0569 59.7145C40.8826 60.1932 38.5 60.4586 36 60.4586C33.5001 60.4586 31.1173 60.1932 28.943 59.7145C29.6979 62.1757 30.792 64.5337 32.2105 66.7141L36 72.5385L39.7892 66.7141C41.2079 64.5337 42.302 62.1757 43.0569 59.7145Z" fill="#F4FBFF"/>
</svg>
