<svg width="28" height="21" viewBox="0 0 28 21" fill="none" xmlns="http://www.w3.org/2000/svg">
<path d="M4.20457 0C4.20383 0 4.203 0 4.20226 0C3.94228 0 3.69777 0.101342 3.51313 0.285517C3.32646 0.471728 3.22363 0.71967 3.22363 0.983623V15.7329C3.22363 16.2737 3.66537 16.7148 4.20846 16.7162C6.49796 16.7217 10.3338 17.1989 12.98 19.9681V4.53255C12.98 4.34921 12.9332 4.17697 12.8448 4.03445C10.6729 0.536791 6.49926 0.00536791 4.20457 0Z" fill="#F2994A"/>
<path d="M24.2631 15.733V0.983623C24.2631 0.71967 24.1603 0.471728 23.9736 0.285517C23.789 0.101342 23.5443 0 23.2846 0C23.2837 0 23.2829 0 23.2822 0C20.9876 0.00546046 16.8139 0.536883 14.642 4.03454C14.5536 4.17707 14.5068 4.3493 14.5068 4.53264V19.9681C17.153 17.1989 20.9889 16.7217 23.2784 16.7162C23.8214 16.7148 24.2631 16.2737 24.2631 15.733Z" fill="#F2994A"/>
<path d="M26.5038 3.40137H25.7906V15.7328C25.7906 17.1138 24.6655 18.2398 23.2824 18.2433C21.3404 18.2479 18.1384 18.6276 15.8706 20.774C19.7927 19.8137 23.9273 20.4379 26.2836 20.9749C26.5778 21.0419 26.8819 20.9727 27.1176 20.7848C27.3525 20.5974 27.4872 20.3172 27.4872 20.0165V4.38481C27.4873 3.84255 27.046 3.40137 26.5038 3.40137Z" fill="#F2994A"/>
<path d="M1.69663 15.7328V3.40137H0.983438C0.441279 3.40137 0 3.84255 0 4.38481V20.0163C0 20.317 0.134753 20.5971 0.369645 20.7845C0.605186 20.9723 0.908935 21.0418 1.20361 20.9746C3.55994 20.4375 7.69462 19.8134 11.6165 20.7737C9.34886 18.6274 6.14681 18.2478 4.20483 18.2432C2.82185 18.2398 1.69663 17.1138 1.69663 15.7328Z" fill="#F2994A"/>
</svg>
