<svg width="24" height="23" viewBox="0 0 24 23" fill="none" xmlns="http://www.w3.org/2000/svg">
<path d="M23.2969 2.8125H22.5938V17.5781C22.5938 18.7413 21.6007 19.6875 20.4375 19.6875H13.9892C13.6988 20.506 12.9167 21.0938 12 21.0938C11.0833 21.0938 10.3013 20.506 10.0108 19.6875H3.5625C2.39934 19.6875 1.40625 18.7413 1.40625 17.5781V2.8125H0.703125C0.314484 2.8125 0 3.12698 0 3.51562V20.3906C0 20.7793 0.314484 21.0938 0.703125 21.0938H8.60452C8.89495 21.9122 9.67706 22.5 10.5938 22.5H13.4062C14.3229 22.5 15.105 21.9122 15.3955 21.0938H23.2969C23.6855 21.0938 24 20.7793 24 20.3906V3.51562C24 3.12698 23.6855 2.8125 23.2969 2.8125Z" fill="#DF8A09"/>
<path d="M11.2969 17.7661V1.638C10.3237 0.824672 8.76094 0 6.375 0C5.98636 0 5.67188 0.314484 5.67188 0.703125V14.7656C5.67188 15.1543 5.98636 15.4688 6.375 15.4688C9.62738 15.4688 10.9837 17.2677 11.2969 17.7661Z" fill="#DF8A09"/>
<path d="M20.4375 18.2812C20.8261 18.2812 21.1406 17.9668 21.1406 17.5781V2.10938C21.1406 1.72073 20.8261 1.40625 20.4375 1.40625H14.8125C14.0181 1.40625 13.2925 1.68117 12.7031 2.12733V18.9844C12.7031 18.5964 13.0183 18.2812 13.4062 18.2812H20.4375Z" fill="#DF8A09"/>
<path d="M3.5625 1.40625C3.17386 1.40625 2.85938 1.72073 2.85938 2.10938V17.5781C2.85938 17.9668 3.17386 18.2812 3.5625 18.2812H9.93038C9.53658 17.8039 8.50387 16.875 6.375 16.875C5.21184 16.875 4.26562 15.9288 4.26562 14.7656V1.40625H3.5625Z" fill="#DF8A09"/>
</svg>
