<svg width="20" height="24" viewBox="0 0 20 24" fill="none" xmlns="http://www.w3.org/2000/svg">
<path d="M15.1582 3.84472H18.1221L15.1582 0.880859V3.84472Z" fill="#AC1818"/>
<path d="M13.7517 5.25113V0H0V24H19.0029V5.25113H13.7517ZM11.6572 6.12262L10.6628 7.11698L9.50142 5.95556L8.34 7.11698L7.34564 6.12262L8.50706 4.9612L7.34564 3.79983L8.34 2.80547L9.50142 3.96689L10.6628 2.80547L11.6572 3.79983L10.4958 4.96125L11.6572 6.12262ZM4.92525 11.3348V12.741H3.51787V11.3348H4.92525ZM3.51787 9.92625V8.52H4.92525V9.92625H3.51787ZM4.92525 14.1495V15.5557H3.51787V14.1495H4.92525ZM4.92525 16.9642V18.3705H3.51787V16.9642H4.92525ZM4.92525 19.779V21.1852H3.51787V19.779H4.92525ZM15.485 16.9642V18.3705H6.33263V16.9642H15.485ZM6.33263 15.5557V14.1495H15.485V15.5557H6.33263ZM15.485 19.779V21.1852H6.33263V19.779H15.485ZM15.485 12.741H6.33263V11.3348H15.485V12.741ZM15.485 8.52V9.92625H6.33263V8.52H15.485Z" fill="#AC1818"/>
</svg>
