<svg width="183" height="148" viewBox="0 0 183 148" fill="none" xmlns="http://www.w3.org/2000/svg">
<path d="M180.466 8.97705H143.031C141.893 8.97705 140.971 9.89963 140.971 11.0377V11.4039C140.971 12.542 141.893 13.4646 143.031 13.4646H180.466C181.605 13.4646 182.527 12.542 182.527 11.4039V11.0377C182.527 9.89963 181.605 8.97705 180.466 8.97705Z" fill="#F2F2F2"/>
<path d="M164.675 12.302H127.239C126.101 12.302 125.179 13.2246 125.179 14.3627V14.7289C125.179 15.8669 126.101 16.7895 127.239 16.7895H164.675C165.813 16.7895 166.735 15.8669 166.735 14.7289V14.3627C166.735 13.2246 165.813 12.302 164.675 12.302Z" fill="#F2F2F2"/>
<path d="M100.012 56.5188H62.5773C61.4392 56.5188 60.5166 57.4414 60.5166 58.5795V58.9457C60.5166 60.0837 61.4392 61.0063 62.5773 61.0063H100.012C101.15 61.0063 102.073 60.0837 102.073 58.9457V58.5795C102.073 57.4414 101.15 56.5188 100.012 56.5188Z" fill="#F2F2F2"/>
<path d="M109.32 60.3423H71.8849C70.7468 60.3423 69.8242 61.2649 69.8242 62.4029V62.7691C69.8242 63.9072 70.7468 64.8298 71.8849 64.8298H109.32C110.458 64.8298 111.381 63.9072 111.381 62.7691V62.4029C111.381 61.2649 110.458 60.3423 109.32 60.3423Z" fill="#F2F2F2"/>
<path d="M93.5275 63.6648H56.0924C54.9543 63.6648 54.0317 64.5874 54.0317 65.7254V66.0916C54.0317 67.2297 54.9543 68.1523 56.0924 68.1523H93.5275C94.6656 68.1523 95.5882 67.2297 95.5882 66.0916V65.7254C95.5882 64.5874 94.6656 63.6648 93.5275 63.6648Z" fill="#F2F2F2"/>
<g opacity="0.5">
<path opacity="0.5" d="M176.384 141.959C175.387 141.959 152.447 151.934 125.851 125.669C111.408 111.408 97.2602 109.889 87.3459 111.48C81.2529 112.456 75.6896 115.432 71.2828 119.741C67.7387 123.221 59.1609 127.963 39.0634 126.668C8.14536 124.673 0 146.782 0 146.782H182.686C182.686 146.782 177.375 141.959 176.384 141.959Z" fill="url(#paint0_linear)"/>
</g>
<path d="M0.00878906 147.278C0.00878906 147.278 8.15415 125.17 39.0722 127.164C59.1697 128.466 67.7495 123.718 71.2833 120.24C75.6818 115.922 81.2431 112.955 87.3299 111.978C97.2442 110.387 111.394 111.906 125.835 126.167C152.431 152.432 175.371 142.458 176.368 142.458C177.365 142.458 182.685 147.278 182.685 147.278H0.00878906Z" fill="#F2F2F2"/>
<path opacity="0.02" d="M0.00878906 147.278C0.00878906 147.278 8.15415 125.17 39.0722 127.164C59.1697 128.466 67.7495 123.718 71.2833 120.24C75.6818 115.922 81.2431 112.955 87.3299 111.978C97.2442 110.387 111.394 111.906 125.835 126.167C152.431 152.432 175.371 142.458 176.368 142.458C177.365 142.458 182.685 147.278 182.685 147.278H0.00878906Z" fill="black"/>
<path d="M58.4538 25.5989H21.0187C19.8806 25.5989 18.958 26.5215 18.958 27.6595V28.0257C18.958 29.1638 19.8806 30.0864 21.0187 30.0864H58.4538C59.5919 30.0864 60.5145 29.1638 60.5145 28.0257V27.6595C60.5145 26.5215 59.5919 25.5989 58.4538 25.5989Z" fill="#F2F2F2"/>
<path d="M67.7634 29.4224H30.3282C29.1902 29.4224 28.2676 30.3449 28.2676 31.483V31.8492C28.2676 32.9873 29.1902 33.9099 30.3282 33.9099H67.7634C68.9014 33.9099 69.824 32.9873 69.824 31.8492V31.483C69.824 30.3449 68.9014 29.4224 67.7634 29.4224Z" fill="#F2F2F2"/>
<path d="M51.9714 32.7468H14.5362C13.3982 32.7468 12.4756 33.6694 12.4756 34.8075V35.1737C12.4756 36.3117 13.3982 37.2343 14.5362 37.2343H51.9714C53.1094 37.2343 54.032 36.3117 54.032 35.1737V34.8075C54.032 33.6694 53.1094 32.7468 51.9714 32.7468Z" fill="#F2F2F2"/>
<g opacity="0.5">
<path opacity="0.5" d="M41.2342 33.5787C50.5066 33.5787 58.0235 26.0618 58.0235 16.7893C58.0235 7.51684 50.5066 0 41.2342 0C31.9617 0 24.4448 7.51684 24.4448 16.7893C24.4448 26.0618 31.9617 33.5787 41.2342 33.5787Z" fill="url(#paint1_linear)"/>
</g>
<path d="M41.2333 31.7497C49.4957 31.7497 56.1938 25.0517 56.1938 16.7893C56.1938 8.52686 49.4957 1.82886 41.2333 1.82886C32.9709 1.82886 26.2729 8.52686 26.2729 16.7893C26.2729 25.0517 32.9709 31.7497 41.2333 31.7497Z" fill="#FCCC63"/>
<path d="M46.328 122.197H33.3145V131.865H46.328V122.197Z" fill="#6C63FF"/>
<path d="M32.1798 121.804L39.4521 114.532C39.5047 114.479 39.5673 114.437 39.6362 114.409C39.705 114.38 39.7789 114.365 39.8534 114.365C39.928 114.365 40.0018 114.38 40.0707 114.409C40.1396 114.437 40.2021 114.479 40.2548 114.532L47.4692 121.746C47.5485 121.825 47.6026 121.926 47.6247 122.036C47.6467 122.146 47.6356 122.26 47.5929 122.364C47.5502 122.467 47.4777 122.556 47.3846 122.618C47.2915 122.681 47.1819 122.714 47.0698 122.714L32.5874 122.772C32.4746 122.774 32.3639 122.742 32.2695 122.68C32.1751 122.618 32.1014 122.529 32.0576 122.425C32.0138 122.321 32.0021 122.207 32.0238 122.096C32.0456 121.985 32.0999 121.884 32.1798 121.804Z" fill="#6C63FF"/>
<path opacity="0.05" d="M32.1798 121.804L39.4521 114.532C39.5047 114.479 39.5673 114.437 39.6362 114.409C39.705 114.38 39.7789 114.365 39.8534 114.365C39.928 114.365 40.0018 114.38 40.0707 114.409C40.1396 114.437 40.2021 114.479 40.2548 114.532L47.4692 121.746C47.5485 121.825 47.6026 121.926 47.6247 122.036C47.6467 122.146 47.6356 122.26 47.5929 122.364C47.5502 122.467 47.4777 122.556 47.3846 122.618C47.2915 122.681 47.1819 122.714 47.0698 122.714L32.5874 122.772C32.4746 122.774 32.3639 122.742 32.2695 122.68C32.1751 122.618 32.1014 122.529 32.0576 122.425C32.0138 122.321 32.0021 122.207 32.0238 122.096C32.0456 121.985 32.0999 121.884 32.1798 121.804Z" fill="black"/>
<path d="M39.653 127.504H39.9137C40.3033 127.504 40.6769 127.659 40.9524 127.934C41.2279 128.21 41.3826 128.583 41.3826 128.973V131.869H38.1841V128.973C38.1841 128.583 38.3388 128.21 38.6143 127.934C38.8898 127.659 39.2634 127.504 39.653 127.504Z" fill="white"/>
<path d="M39.8554 117.109C40.2976 117.109 40.656 116.751 40.656 116.309C40.656 115.867 40.2976 115.508 39.8554 115.508C39.4132 115.508 39.0547 115.867 39.0547 116.309C39.0547 116.751 39.4132 117.109 39.8554 117.109Z" fill="white"/>
<path d="M37.3858 123.432H34.332V125.758H37.3858V123.432Z" fill="white"/>
<path d="M36.0031 123.432H35.7114V125.758H36.0031V123.432Z" fill="#6C63FF"/>
<path d="M45.5274 123.432H42.4736V125.758H45.5274V123.432Z" fill="white"/>
<path d="M44.1467 123.432H43.855V125.758H44.1467V123.432Z" fill="#6C63FF"/>
<g opacity="0.2">
<path opacity="0.2" d="M93.6276 111.96C93.6009 111.954 93.6276 111.96 93.6276 111.96V111.96Z" fill="url(#paint2_linear)"/>
</g>
<g opacity="0.2">
<path opacity="0.2" d="M93.9274 117.968H93.9522C93.9573 117.966 93.9618 117.963 93.9651 117.958C93.9684 117.954 93.9704 117.949 93.9708 117.943C93.9724 117.935 93.9724 117.927 93.9708 117.919V117.898C93.9501 117.848 93.9025 117.782 93.8756 117.724L93.8632 117.693C93.862 117.679 93.862 117.665 93.8632 117.652C93.8632 117.652 93.8632 117.639 93.8632 117.633L94.3101 116.166L94.3204 116.131C94.3204 116.131 94.8894 116.375 95.0363 116.863C95.1209 117.1 95.1253 117.358 95.0487 117.598L95.0384 117.623H95.0487V117.892H95.6694C95.7128 117.871 95.6549 117.817 95.597 117.763L95.5825 117.749L95.5453 117.71C95.5347 117.698 95.5257 117.684 95.5184 117.67L95.508 117.645V117.631H95.4894V117.608C95.5669 117.249 95.5493 116.875 95.4383 116.525C95.3272 116.174 95.1266 115.859 94.8563 115.61C95.006 115.163 95.006 114.68 94.8563 114.234C94.9142 114.192 96.0418 113.377 96.0335 112.322C96.0368 112.266 96.0368 112.209 96.0335 112.152C96.0335 112.152 96.1308 112.072 96.0335 111.925V111.912H96.0232H95.9549C95.9103 111.917 95.8672 111.931 95.8287 111.954C95.8287 111.954 95.7646 112.161 95.8287 112.214H95.8121C95.8121 112.214 95.1439 113.663 94.697 113.87L94.666 113.851V113.663C94.6664 113.654 94.6664 113.646 94.666 113.638C94.6663 113.63 94.6663 113.623 94.666 113.615C94.7161 113.589 94.7616 113.555 94.8004 113.514C94.8153 113.498 94.8291 113.482 94.8418 113.464L94.8584 113.439L94.8749 113.41L94.8873 113.383C94.8962 113.364 94.9038 113.344 94.9101 113.323V113.299V113.268C94.9101 113.268 94.9101 113.251 94.9101 113.243C94.9101 113.232 94.9101 113.222 94.9101 113.21C94.9101 113.15 94.8996 113.092 94.8791 113.036C94.8791 113.021 94.8729 113.006 94.8604 112.99L94.8501 112.968L94.8356 112.943C94.8468 112.929 94.86 112.917 94.8749 112.908C94.9036 112.891 94.9353 112.882 94.968 112.879H95.0487H95.0653C95.0771 112.874 95.0882 112.868 95.0984 112.86C95.1141 112.847 95.1324 112.837 95.1522 112.831H95.0301H95.0115H94.9949H94.9763H94.9597H94.9432H94.9266H94.9101H94.8935L94.8604 112.817C94.8776 112.823 94.8958 112.828 94.9142 112.829H94.9846H94.997L95.0094 112.819V112.802H94.9866H94.9722C94.944 112.806 94.9155 112.806 94.8873 112.802H94.8273H94.8004L94.7756 112.792C94.8096 112.804 94.8472 112.802 94.88 112.787C94.9127 112.772 94.9381 112.744 94.9504 112.71C94.9628 112.676 94.9611 112.638 94.9458 112.606C94.9305 112.573 94.9027 112.548 94.8687 112.535L94.8915 112.521C94.9153 112.5 94.9301 112.471 94.9328 112.44C94.9357 112.427 94.9357 112.414 94.9328 112.401L94.9184 112.413H94.906C94.8668 112.441 94.8193 112.454 94.7715 112.45H94.7549C94.7128 112.44 94.6718 112.424 94.6329 112.405L94.5977 112.392H94.5873H94.5584H94.5418H94.5191H94.4094C94.2549 112.398 94.1076 112.46 93.9956 112.566C93.9698 112.592 93.9463 112.619 93.9253 112.649C93.9103 112.497 93.9382 112.345 94.006 112.208H93.9936H93.9563L93.9377 112.243C93.9475 112.194 93.9664 112.146 93.9936 112.103H93.9811C94.0086 112.072 94.0238 112.032 94.0238 111.991C94.0238 111.95 94.0086 111.91 93.9811 111.879C93.8839 111.732 93.7039 111.846 93.7039 111.846C93.6894 111.894 93.6797 111.943 93.6749 111.993L93.646 111.981C93.6129 112.092 93.2446 113.375 93.8529 114.194C93.852 114.212 93.852 114.229 93.8529 114.246V115.628L93.4391 117.523L93.3584 117.881L93.9398 117.976L93.9274 117.968ZM94.0308 113.489C94.0636 113.516 94.0998 113.539 94.1384 113.557C94.1372 113.57 94.1372 113.583 94.1384 113.597V113.777L94.1032 113.793C94.0763 113.704 94.0536 113.601 94.0287 113.489H94.0308Z" fill="url(#paint3_linear)"/>
</g>
<path d="M96.0396 112.314C96.0396 112.314 96.1471 112.223 96.0396 112.061C95.932 111.9 95.7334 112.026 95.7334 112.026C95.7334 112.026 95.6609 112.26 95.7334 112.314C95.8058 112.368 96.0396 112.314 96.0396 112.314Z" fill="#CA7070"/>
<path d="M94.9268 118.347H95.4233C95.4215 118.37 95.4248 118.394 95.433 118.416C95.4412 118.438 95.4541 118.458 95.4709 118.475C95.5371 118.552 95.6778 118.645 95.6095 118.682H94.9268V118.347Z" fill="#00695C"/>
<path opacity="0.2" d="M95.4328 118.475C95.4161 118.458 95.4032 118.438 95.395 118.416C95.3868 118.394 95.3834 118.37 95.3852 118.347H95.4204C95.4186 118.37 95.4219 118.394 95.4301 118.416C95.4384 118.438 95.4513 118.458 95.468 118.475C95.5342 118.552 95.6749 118.645 95.6066 118.682H95.5715C95.6335 118.645 95.499 118.552 95.4328 118.475Z" fill="white"/>
<path d="M93.1555 118.246L93.6272 118.328C93.6144 118.384 93.6218 118.442 93.6479 118.492C93.6996 118.597 93.8134 118.734 93.7452 118.763L93.0728 118.653L93.1555 118.246Z" fill="#00695C"/>
<path d="M93.3829 112.094C93.3829 112.094 92.8512 113.772 93.7429 114.701L94.0015 114.494C94.0015 114.494 93.4739 112.663 93.7698 112.233C93.2484 112.069 93.3829 112.094 93.3829 112.094Z" fill="#00695C"/>
<path d="M93.751 112.241C93.751 112.241 93.8586 112.15 93.751 111.989C93.6434 111.827 93.4448 111.954 93.4448 111.954C93.4448 111.954 93.3724 112.187 93.4448 112.241C93.5172 112.295 93.751 112.241 93.751 112.241Z" fill="#CA7070"/>
<path opacity="0.2" d="M93.6063 118.483C93.5802 118.433 93.5728 118.375 93.5856 118.32L93.1553 118.25L93.627 118.328C93.6142 118.383 93.6215 118.441 93.6477 118.492C93.6994 118.597 93.8132 118.734 93.7449 118.763H93.716C93.7615 118.713 93.656 118.585 93.6063 118.483Z" fill="white"/>
<path d="M94.1737 114.406H94.2151C94.343 114.406 94.4468 114.302 94.4468 114.174V113.888C94.4468 113.76 94.343 113.657 94.2151 113.657H94.1737C94.0457 113.657 93.942 113.76 93.942 113.888V114.174C93.942 114.302 94.0457 114.406 94.1737 114.406Z" fill="#CA7070"/>
<path opacity="0.2" d="M93.9644 114.604C93.9644 114.604 93.443 112.796 93.7265 112.351H93.7679H93.7803C93.4844 112.781 94.012 114.612 94.012 114.612L93.7534 114.819L93.7306 114.794L93.9644 114.604Z" fill="white"/>
<path d="M94.1836 113.919C94.4921 113.919 94.7422 113.669 94.7422 113.36C94.7422 113.052 94.4921 112.802 94.1836 112.802C93.8751 112.802 93.625 113.052 93.625 113.36C93.625 113.669 93.8751 113.919 94.1836 113.919Z" fill="#CA7070"/>
<path opacity="0.2" d="M94.3821 114.153V113.909C94.3841 113.891 94.3841 113.873 94.3821 113.855C94.4915 113.799 94.5793 113.708 94.6321 113.598C94.685 113.487 94.6998 113.362 94.6744 113.242C94.6489 113.121 94.5846 113.013 94.4914 112.933C94.3982 112.853 94.2813 112.806 94.1587 112.8H94.1897C94.315 112.799 94.4368 112.841 94.5353 112.919C94.6339 112.996 94.7035 113.104 94.7332 113.226C94.7628 113.348 94.7506 113.476 94.6985 113.59C94.6465 113.704 94.5577 113.797 94.4463 113.855C94.4482 113.873 94.4482 113.891 94.4463 113.909V114.153C94.4463 114.22 94.4197 114.284 94.3723 114.331C94.325 114.378 94.2608 114.405 94.1939 114.405H94.1628C94.2239 114.397 94.2799 114.367 94.3203 114.32C94.3607 114.274 94.3827 114.214 94.3821 114.153Z" fill="white"/>
<path d="M93.6172 116.145C93.6172 116.145 94.6951 116.267 94.7344 116.145C94.9032 115.648 94.9032 115.109 94.7344 114.612C94.7344 114.539 94.72 114.466 94.6919 114.399C94.6638 114.331 94.6227 114.269 94.5708 114.217C94.5189 114.165 94.4573 114.124 94.3896 114.096C94.3218 114.068 94.2492 114.054 94.1758 114.054C94.0276 114.054 93.8856 114.113 93.7808 114.217C93.676 114.322 93.6172 114.464 93.6172 114.612V116.145Z" fill="#00695C"/>
<path d="M93.6176 116.146L93.1313 118.38H93.6176L94.1224 116.725C94.1224 116.725 94.743 116.996 94.9148 117.536C95.0189 117.808 95.0189 118.11 94.9148 118.382H95.4382V118.357C95.5246 117.959 95.5047 117.545 95.3805 117.157C95.2563 116.768 95.0322 116.42 94.7306 116.146" fill="#263238"/>
<path opacity="0.2" d="M94.6621 116.145C94.831 115.648 94.831 115.109 94.6621 114.612C94.6619 114.47 94.6076 114.334 94.5104 114.23C94.4132 114.127 94.2803 114.065 94.1387 114.056H94.1739C94.322 114.056 94.4641 114.115 94.5688 114.219C94.6736 114.324 94.7325 114.466 94.7325 114.614C94.9013 115.111 94.9013 115.65 94.7325 116.147C94.718 116.191 94.5711 116.203 94.3869 116.201C94.5463 116.197 94.6621 116.183 94.6621 116.145Z" fill="white"/>
<path d="M94.7422 114.604C94.7422 114.604 96.1905 113.595 96.0395 112.316H95.7167C95.7167 112.316 94.9409 113.992 94.4464 114.155C93.9519 114.319 94.7422 114.604 94.7422 114.604Z" fill="#00695C"/>
<g opacity="0.2">
<path opacity="0.2" d="M94.1118 116.76L93.6173 118.388H93.5449L94.0497 116.733L94.1118 116.76Z" fill="white"/>
<path opacity="0.2" d="M94.6626 116.154H94.735C95.0366 116.428 95.2607 116.776 95.3849 117.165C95.5091 117.553 95.529 117.967 95.4426 118.365V118.39H95.3702V118.365C95.4566 117.967 95.4367 117.553 95.3125 117.165C95.1883 116.776 94.9642 116.428 94.6626 116.154Z" fill="white"/>
</g>
<path opacity="0.2" d="M95.9852 112.328H96.0389C96.1838 113.609 94.7417 114.616 94.7417 114.616L94.7065 114.602C94.8679 114.484 96.1196 113.526 95.9852 112.328Z" fill="white"/>
<path d="M94.6279 113.11C94.5971 113.182 94.5755 113.258 94.5638 113.336C94.5494 113.415 94.5193 113.491 94.4752 113.558C94.4312 113.626 94.374 113.684 94.3072 113.729C94.2302 113.771 94.1445 113.794 94.0569 113.797C93.9908 113.805 93.9237 113.8 93.8599 113.78C93.7961 113.761 93.7371 113.729 93.6865 113.685C93.6279 113.622 93.5885 113.543 93.5728 113.458C93.5449 113.331 93.5493 113.2 93.5854 113.075C93.6216 112.951 93.6884 112.838 93.7796 112.746C93.8724 112.656 93.9886 112.595 94.1148 112.568C94.2411 112.541 94.3723 112.551 94.4934 112.595C94.5371 112.616 94.5828 112.633 94.63 112.645C94.6672 112.652 94.7058 112.65 94.7419 112.638C94.7781 112.626 94.8107 112.606 94.8369 112.578C94.8428 112.597 94.8441 112.617 94.8409 112.636C94.8376 112.656 94.8298 112.674 94.8181 112.69C94.8064 112.705 94.7911 112.718 94.7735 112.727C94.7559 112.736 94.7365 112.74 94.7169 112.74C94.7582 112.76 94.8031 112.771 94.8489 112.774C94.8947 112.776 94.9405 112.77 94.9838 112.754C94.9594 112.806 94.9164 112.846 94.8634 112.867C94.8104 112.888 94.7514 112.889 94.6983 112.868C94.7997 112.913 94.9099 112.936 95.021 112.934C94.9982 112.934 94.9527 112.978 94.9238 112.986C94.888 112.989 94.852 112.989 94.8162 112.986C94.7762 112.986 94.7371 112.998 94.7036 113.02C94.6702 113.042 94.6439 113.073 94.6279 113.11Z" fill="#263238"/>
<g opacity="0.2">
<path opacity="0.2" d="M94.7025 112.742C94.744 112.762 94.789 112.773 94.8349 112.775C94.7751 112.779 94.7152 112.768 94.6611 112.742C94.6786 112.742 94.6959 112.738 94.7119 112.731C94.728 112.724 94.7424 112.714 94.7542 112.701C94.7661 112.689 94.7752 112.673 94.7809 112.657C94.7866 112.64 94.7888 112.623 94.7873 112.605L94.8163 112.581C94.822 112.599 94.8235 112.618 94.8206 112.637C94.8176 112.656 94.8104 112.674 94.7994 112.689C94.7883 112.705 94.7739 112.718 94.7571 112.727C94.7403 112.736 94.7216 112.741 94.7025 112.742Z" fill="white"/>
<path opacity="0.2" d="M94.591 112.645C94.5438 112.633 94.4981 112.617 94.4545 112.595C94.3885 112.569 94.3185 112.554 94.2476 112.552C94.3331 112.549 94.4183 112.564 94.4979 112.595C94.5415 112.617 94.5873 112.633 94.6344 112.645H94.6531C94.6325 112.648 94.6116 112.648 94.591 112.645Z" fill="white"/>
<path opacity="0.2" d="M94.8681 112.986C94.8971 112.986 94.9426 112.935 94.9653 112.935C94.8542 112.936 94.7441 112.914 94.6426 112.868C94.6657 112.878 94.6902 112.882 94.715 112.883C94.8068 112.918 94.9044 112.935 95.0026 112.933C94.9798 112.933 94.9343 112.976 94.9053 112.984C94.8807 112.988 94.8555 112.988 94.8309 112.984L94.8681 112.986Z" fill="white"/>
<path opacity="0.2" d="M94.02 113.797C94.1076 113.794 94.1933 113.771 94.2704 113.729C94.3372 113.684 94.3943 113.626 94.4384 113.558C94.4824 113.491 94.5125 113.415 94.5269 113.336C94.5386 113.258 94.5602 113.182 94.591 113.11C94.6073 113.077 94.6322 113.049 94.6631 113.028C94.6941 113.008 94.7299 112.996 94.7669 112.994H94.8021C94.7651 112.996 94.7292 113.008 94.6983 113.028C94.6674 113.049 94.6425 113.077 94.6262 113.11C94.5954 113.182 94.5738 113.258 94.5621 113.336C94.5477 113.415 94.5176 113.491 94.4735 113.558C94.4295 113.626 94.3724 113.684 94.3055 113.729C94.2285 113.771 94.1428 113.794 94.0552 113.797H94.02Z" fill="white"/>
<path opacity="0.2" d="M94.7461 112.885C94.7842 112.882 94.8211 112.87 94.8533 112.85C94.8854 112.829 94.9119 112.801 94.9302 112.767L94.9716 112.755C94.9519 112.797 94.9197 112.832 94.8793 112.855C94.839 112.879 94.7925 112.889 94.7461 112.885Z" fill="white"/>
</g>
<path opacity="0.2" d="M96.0047 112.314C96.0047 112.314 96.1123 112.223 96.0047 112.061C95.9906 112.038 95.971 112.018 95.9476 112.003C95.9242 111.989 95.8977 111.98 95.8703 111.978C95.9035 111.975 95.9371 111.98 95.9671 111.995C95.9972 112.01 96.0224 112.033 96.0399 112.061C96.1475 112.223 96.0399 112.314 96.0399 112.314C95.9719 112.329 95.9026 112.336 95.833 112.336C95.8908 112.333 95.9482 112.326 96.0047 112.314Z" fill="white"/>
<path d="M98.4698 110.305C98.4698 110.305 97.9381 111.983 98.8298 112.912L99.0884 112.705C99.0884 112.705 98.5608 110.874 98.8567 110.444C98.3353 110.28 98.4698 110.305 98.4698 110.305Z" fill="#FF5252"/>
<path d="M98.8389 110.454C98.8389 110.454 98.9465 110.363 98.8389 110.202C98.7313 110.04 98.5327 110.166 98.5327 110.166C98.5327 110.166 98.4603 110.4 98.5327 110.454C98.6051 110.508 98.8389 110.454 98.8389 110.454Z" fill="#F6B9AD"/>
<path d="M99.2606 112.618H99.302C99.4299 112.618 99.5337 112.514 99.5337 112.386V112.101C99.5337 111.973 99.4299 111.869 99.302 111.869H99.2606C99.1326 111.869 99.0289 111.973 99.0289 112.101V112.386C99.0289 112.514 99.1326 112.618 99.2606 112.618Z" fill="#F6B9AD"/>
<path opacity="0.2" d="M99.0513 112.822C99.0513 112.822 98.53 111.014 98.8134 110.569H98.8548H98.8672C98.5713 111 99.0989 112.831 99.0989 112.831L98.8403 113.038L98.8175 113.013L99.0513 112.822Z" fill="white"/>
<path d="M99.2715 112.129C99.58 112.129 99.8301 111.879 99.8301 111.571C99.8301 111.262 99.58 111.012 99.2715 111.012C98.963 111.012 98.7129 111.262 98.7129 111.571C98.7129 111.879 98.963 112.129 99.2715 112.129Z" fill="#F6B9AD"/>
<path opacity="0.2" d="M99.4695 112.363V112.121C99.4715 112.103 99.4715 112.085 99.4695 112.067C99.5789 112.011 99.6667 111.921 99.7195 111.81C99.7724 111.699 99.7872 111.574 99.7618 111.454C99.7363 111.334 99.672 111.226 99.5788 111.146C99.4856 111.066 99.3687 111.019 99.2461 111.012H99.2771C99.4024 111.012 99.5242 111.054 99.6227 111.131C99.7213 111.209 99.791 111.317 99.8206 111.439C99.8502 111.561 99.838 111.689 99.7859 111.803C99.7339 111.917 99.6451 112.01 99.5337 112.067C99.5356 112.085 99.5356 112.103 99.5337 112.121V112.365C99.5337 112.432 99.5071 112.496 99.4598 112.544C99.4124 112.591 99.3482 112.618 99.2813 112.618H99.2502C99.3116 112.61 99.3679 112.579 99.4084 112.532C99.4488 112.485 99.4706 112.425 99.4695 112.363Z" fill="white"/>
<path d="M98.7051 114.356C98.7051 114.356 99.783 114.478 99.8223 114.356C99.9506 113.963 99.6154 113.528 99.7789 113.321C99.8294 113.248 99.8599 113.163 99.8675 113.075C99.8752 112.986 99.8596 112.897 99.8223 112.816C99.8223 112.743 99.8079 112.67 99.7798 112.603C99.7517 112.535 99.7106 112.473 99.6587 112.421C99.6068 112.37 99.5452 112.328 99.4775 112.3C99.4097 112.272 99.337 112.258 99.2637 112.258C99.1155 112.258 98.9735 112.317 98.8687 112.421C98.7639 112.526 98.7051 112.668 98.7051 112.816V114.356Z" fill="#FF5252"/>
<path opacity="0.2" d="M99.7798 113.33C99.8303 113.257 99.8609 113.172 99.8685 113.083C99.8761 112.995 99.8605 112.906 99.8233 112.825C99.8233 112.677 99.7644 112.535 99.6597 112.43C99.5549 112.325 99.4128 112.266 99.2647 112.266H99.2295C99.3711 112.275 99.504 112.338 99.6012 112.441C99.6984 112.545 99.7527 112.681 99.7529 112.823C99.7902 112.904 99.8058 112.993 99.7982 113.081C99.7905 113.17 99.76 113.255 99.7095 113.328C99.5357 113.535 99.8812 113.961 99.7529 114.362C99.7405 114.399 99.6288 114.414 99.4819 114.416C99.664 114.416 99.8109 114.406 99.8253 114.362C99.9515 113.963 99.606 113.537 99.7798 113.33Z" fill="white"/>
<path d="M99.5921 114.32C100.008 114.978 100.169 115.764 100.047 116.532V116.557H99.7121C99.7793 116.279 99.7793 115.989 99.7121 115.711C99.6484 115.387 99.4671 115.098 99.2032 114.9L98.8783 116.555H98.5659L98.8783 114.32H99.5921Z" fill="#F6B9AD"/>
<path d="M101.49 111.105C101.49 111.105 101.62 111.052 101.564 110.863C101.508 110.675 101.283 110.739 101.283 110.739C101.283 110.739 101.144 110.946 101.198 111.014C101.252 111.083 101.49 111.105 101.49 111.105Z" fill="#F6B9AD"/>
<path d="M99.5753 112.914C99.5753 112.914 101.249 112.372 101.487 111.105L101.177 111.01C101.177 111.01 99.9353 112.386 99.4222 112.396C98.9091 112.407 99.5753 112.914 99.5753 112.914Z" fill="#FF5252"/>
<path opacity="0.2" d="M101.429 111.108L101.481 111.124C101.243 112.391 99.5695 112.933 99.5695 112.933L99.5405 112.91C99.7371 112.84 101.208 112.289 101.429 111.108Z" fill="white"/>
<g opacity="0.2">
<path opacity="0.2" d="M99.1271 114.898L98.8022 116.553H98.8747L99.1891 114.944C99.1692 114.928 99.1485 114.912 99.1271 114.898Z" fill="white"/>
<path opacity="0.2" d="M99.5924 114.321H99.52C99.9356 114.978 100.097 115.764 99.9752 116.532V116.557H100.041V116.532C100.165 115.765 100.006 114.979 99.5924 114.321Z" fill="white"/>
</g>
<path opacity="0.2" d="M101.452 111.087C101.452 111.087 101.582 111.033 101.526 110.845C101.519 110.818 101.507 110.794 101.489 110.773C101.471 110.753 101.448 110.737 101.423 110.727C101.455 110.733 101.486 110.748 101.511 110.771C101.535 110.793 101.553 110.823 101.561 110.855C101.617 111.041 101.487 111.097 101.487 111.097C101.416 111.092 101.347 111.078 101.28 111.058C101.336 111.072 101.394 111.082 101.452 111.087Z" fill="white"/>
<path d="M98.704 114.296L98.0254 115.727C98.4221 115.747 98.8168 115.795 99.2067 115.87C99.9578 116.013 100.316 115.663 100.316 115.663L99.8336 114.296H98.704Z" fill="#263238"/>
<path d="M98.8838 116.549C98.8838 116.549 99.2417 116.621 99.1693 116.755H98.5259L98.561 116.549H98.8838Z" fill="#FF5252"/>
<path d="M100.028 116.549C100.028 116.549 100.386 116.621 100.314 116.755H99.6704L99.7056 116.549H100.028Z" fill="#FF5252"/>
<path d="M99.7781 111.112C99.7781 111.112 98.9195 112.328 99.3126 112.829L97.7754 112.794C97.7754 112.794 98.2037 110.038 99.7781 111.112Z" fill="#FCCC63"/>
<path opacity="0.2" d="M99.7777 111.112C99.6014 110.981 99.3951 110.897 99.1778 110.867C99.3255 110.915 99.465 110.985 99.5915 111.074C99.5915 111.074 98.7329 112.291 99.126 112.792L97.7729 112.761V112.792L99.3102 112.827C98.9191 112.328 99.7777 111.112 99.7777 111.112Z" fill="white"/>
<path opacity="0.2" d="M99.8337 114.296H99.7261L100.21 115.655C100.01 115.82 99.7577 115.908 99.4985 115.903C99.7963 115.932 100.094 115.843 100.326 115.655L99.8337 114.296Z" fill="white"/>
<path opacity="0.2" d="M98.8844 116.549H98.812C98.812 116.549 99.1699 116.621 99.0975 116.755H99.1699C99.2423 116.619 98.8844 116.549 98.8844 116.549Z" fill="white"/>
<path opacity="0.2" d="M100.028 116.549H99.9556C99.9556 116.549 100.313 116.621 100.241 116.755H100.313C100.386 116.619 100.028 116.549 100.028 116.549Z" fill="white"/>
<path d="M150.113 82.9495L148.118 71.8104L154.435 71.5022V82.9495H158.757L163.079 70.6477" stroke="#B3B3B3" stroke-miterlimit="10"/>
<path d="M157.431 81.7847H151.439C148.32 81.7847 145.791 84.3134 145.791 87.4328V88.4383C145.791 91.5577 148.32 94.0865 151.439 94.0865H157.431C160.55 94.0865 163.079 91.5577 163.079 88.4383V87.4328C163.079 84.3134 160.55 81.7847 157.431 81.7847Z" fill="#6C63FF"/>
<path opacity="0.05" d="M157.096 81.7847H152.11C150.48 81.7896 148.918 82.4392 147.766 83.5917C146.614 84.7441 145.964 86.3058 145.959 87.9356C145.959 88.0763 145.959 88.2128 145.976 88.3494C146.085 86.7956 146.779 85.3408 147.916 84.2771C149.054 83.2133 150.552 82.6193 152.11 82.6143H157.096C158.654 82.6193 160.152 83.2133 161.29 84.2771C162.427 85.3408 163.121 86.7956 163.23 88.3494C163.23 88.2128 163.247 88.0742 163.247 87.9356C163.242 86.3058 162.592 84.7441 161.44 83.5917C160.287 82.4392 158.726 81.7896 157.096 81.7847Z" fill="black"/>
<path d="M158.417 85.4484L156.785 84.1677L152.837 89.1683L150.714 87.5235L149.386 89.2118L152.473 91.5703L153.239 92.1848L158.417 85.4484Z" fill="url(#paint4_linear)"/>
<path d="M158.297 85.4177L156.816 84.2839L152.895 89.3983L150.717 87.7266L149.581 89.208L152.5 91.4424L153.249 92.0031L158.297 85.4177Z" fill="#69F0AE"/>
<path d="M180.66 48.4933C180.66 62.6986 168.793 74.2142 156.158 74.2142C143.523 74.2142 130.574 62.6986 130.574 48.4933C130.574 34.2881 143.523 22.7725 156.16 22.7725C168.797 22.7725 180.66 34.2881 180.66 48.4933Z" fill="url(#paint5_linear)"/>
<path d="M179.488 48.4938C179.488 62.035 168.177 73.0106 156.132 73.0106C144.086 73.0106 131.743 62.035 131.743 48.4938C131.743 34.9527 144.091 23.9854 156.134 23.9854C168.177 23.9854 179.488 34.9507 179.488 48.4938Z" fill="#6C63FF"/>
<path d="M157.809 73.8706H152.391V75.7637H157.809V73.8706Z" fill="#6C63FF"/>
<g opacity="0.2">
<path opacity="0.2" d="M156.134 23.8921C155.846 23.8921 155.561 23.8921 155.273 23.9128C166.989 24.4197 177.768 35.1905 177.768 48.4089C177.768 61.6272 166.989 72.398 155.281 72.9049C155.569 72.9174 155.856 72.9256 156.142 72.9256C168.185 72.9256 179.498 61.95 179.498 48.4089C179.498 34.8677 168.177 23.8921 156.134 23.8921Z" fill="black"/>
</g>
<g opacity="0.2">
<path opacity="0.2" d="M133.123 48.4938C133.123 35.1472 145.123 24.2874 156.994 23.9854C156.822 23.9854 156.651 23.9854 156.479 23.9854C144.436 23.9854 132.09 34.961 132.09 48.5021C132.09 62.0432 144.434 73.0189 156.477 73.0189C156.648 73.0189 156.82 73.0189 156.992 73.0189C145.116 72.6961 133.123 61.8467 133.123 48.4938Z" fill="white"/>
</g>
<path d="M163.145 69.5696H147.575V74.6447H163.145V69.5696Z" fill="#6C63FF"/>
<path opacity="0.2" d="M147.574 25.7622C147.574 25.7622 129.08 46.9025 147.574 71.2248L153.682 71.2041C153.682 71.2041 136.822 51.1107 152.908 24.2395L149.902 24.9243L147.574 25.7622Z" fill="white"/>
<path opacity="0.2" d="M163.66 25.4332C163.66 25.4332 182.154 46.8962 163.66 71.2185L157.553 71.1978C157.553 71.1978 174.412 50.9224 158.327 24.0574L161.337 24.6594L163.66 25.4332Z" fill="white"/>
<defs>
<linearGradient id="paint0_linear" x1="91.3513" y1="146.78" x2="91.3513" y2="110.975" gradientUnits="userSpaceOnUse">
<stop stop-color="#808080" stop-opacity="0.25"/>
<stop offset="0.54" stop-color="#808080" stop-opacity="0.12"/>
<stop offset="1" stop-color="#808080" stop-opacity="0.1"/>
</linearGradient>
<linearGradient id="paint1_linear" x1="6715.33" y1="5449.82" x2="6715.33" y2="0" gradientUnits="userSpaceOnUse">
<stop stop-color="#808080" stop-opacity="0.25"/>
<stop offset="0.54" stop-color="#808080" stop-opacity="0.12"/>
<stop offset="1" stop-color="#808080" stop-opacity="0.1"/>
</linearGradient>
<linearGradient id="paint2_linear" x1="521.457" y1="113.7" x2="521.457" y2="113.7" gradientUnits="userSpaceOnUse">
<stop stop-color="#808080" stop-opacity="0.25"/>
<stop offset="0.54" stop-color="#808080" stop-opacity="0.12"/>
<stop offset="1" stop-color="#808080" stop-opacity="0.1"/>
</linearGradient>
<linearGradient id="paint3_linear" x1="-7188.5" y1="4211.91" x2="-7188.5" y2="4027.54" gradientUnits="userSpaceOnUse">
<stop stop-color="#808080" stop-opacity="0.25"/>
<stop offset="0.54" stop-color="#808080" stop-opacity="0.12"/>
<stop offset="1" stop-color="#808080" stop-opacity="0.1"/>
</linearGradient>
<linearGradient id="paint4_linear" x1="153.885" y1="92.1944" x2="153.903" y2="84.169" gradientUnits="userSpaceOnUse">
<stop stop-opacity="0.12"/>
<stop offset="0.55" stop-opacity="0.09"/>
<stop offset="1" stop-opacity="0.02"/>
</linearGradient>
<linearGradient id="paint5_linear" x1="45741" y1="23314.6" x2="45741" y2="10524.1" gradientUnits="userSpaceOnUse">
<stop stop-color="#808080" stop-opacity="0.25"/>
<stop offset="0.54" stop-color="#808080" stop-opacity="0.12"/>
<stop offset="1" stop-color="#808080" stop-opacity="0.1"/>
</linearGradient>
</defs>
</svg>
